<svg xmlns="http://www.w3.org/2000/svg" width="736" height="350" fill="none" viewBox="0 0 736 350">
    <mask id="ocsfr5jbca" width="736" height="350" x="0" y="0" maskUnits="userSpaceOnUse">
        <path fill="#F2F7FA" fill-rule="evenodd" d="M0 0h736v349.258H0V0z" clip-rule="evenodd"/>
    </mask>
    <g mask="url(#ocsfr5jbca)">
        <path fill="#F1EDEE" d="M233.426 370.28h-263.33s18.838-1.448 55.739-13.907c36.804-12.459 62.982-9.368 62.982-9.368s6.859 1.159 15.649-6.085c8.791-7.147 25.889-19.895 53.13-19.895 27.241 0 65.494 14.68 75.83 49.255z"/>
        <path fill="#DFDFDF" d="M548.984 148.368H116.026v280.949h432.958V148.368z"/>
        <path fill="#FBF7F8" d="M736 307.916H38.167s68.779-5.795 152.337-31.581c67.426-20.765 99.497-22.986 115.823-21.055 16.228 1.932 63.176 2.898 97.661-19.123 34.486-22.02 66.074-41.142 141.615-41.142 75.541 0 146.348 36.41 190.397 112.901z"/>
        <path fill="#7B997C" d="M145.384 326.364h-6.666v46.648h6.666v-46.648z"/>
        <path fill="#89B1D0" d="M136.179 331.913l-6.562 1.171 8.198 45.92 6.561-1.171-8.197-45.92z"/>
        <path fill="#F9F5F6" d="M158.508 337.954h-6.665v46.647h6.665v-46.647z"/>
        <path fill="#588095" d="M676.227 147.981H600.3v93.972h20.479v-73.497h55.448v-20.475z"/>
        <path fill="#DFDFDF" d="M624.522 26.838h-248.84v77.843h248.84V26.838z"/>
        <path fill="#DFDFDF" d="M451.314 90.098l-45.015-45.102v90.301l45.015-45.199z"/>
        <path fill="#FBF7F8" d="M557.863 46.348H406.299v4.153h151.564v-4.153zM543.567 61.511H406.299v4.153h137.268v-4.153zM482.419 76.674h-76.12v4.153h76.12v-4.153z"/>
        <path fill="#BECBB2" d="M134.665-3.262H50.238v84.41h84.427v-84.41z"/>
        <g fill="#FBF7F8" opacity=".5">
            <path d="M64.055-3.26h-1.352C61.35-1.906 59.998-.457 58.839.99c-2.898 3.38-5.796 6.471-8.501 9.368v1.352c2.995-3.09 6.086-6.47 9.273-10.14 1.353-1.642 2.802-3.187 4.444-4.83zM71.874 27.064c0 5.892 6.665 10.914 19.803 14.777 12.268 3.573 23.473 5.022 33.713 5.022 3.187 0 6.279-.193 9.273-.386v-.966c-12.365 1.062-26.758.096-42.697-4.636-12.654-3.767-19.03-8.402-19.126-13.81-.097-10.238 21.638-21.731 41.827-30.327h-2.608C92.256 5.334 71.777 16.634 71.874 27.064z" opacity=".5"/>
            <path d="M114.855 13.06c0 3.864 4.25 6.857 13.041 9.369 2.318.676 4.54 1.159 6.665 1.545v-.966c-2.125-.386-4.25-.966-6.376-1.545-8.114-2.318-12.268-5.119-12.364-8.403 0-4.153 6.375-9.368 18.74-15.066v-1.062C121.52 3.016 114.855 8.425 114.855 13.06zM66.746 5.82c1.45-3.285 3.671-6.278 6.569-9.08h-1.449c-2.705 2.705-4.637 5.602-5.99 8.693-3.67 8.595-5.312 18.35-7.05 28.78-1.836 11.493-3.768 23.083-8.695 33.224v2.221c5.603-10.527 7.632-22.986 9.66-35.251 1.739-10.43 3.285-20.185 6.955-28.588zM68.88 57.102c1.932-3.091 5.023-5.12 9.08-5.988 14.394-2.994 39.026 8.402 56.704 18.253v-1.159c-2.608-1.448-5.409-2.994-8.307-4.442-21.929-11.204-38.254-15.84-48.59-13.618-4.347.87-7.631 3.09-9.66 6.374-3.188 5.119-4.926 11.203-6.858 17.674-.677 2.318-1.353 4.636-2.126 6.954h1.063l2.029-6.664c1.835-6.374 3.574-12.459 6.665-17.384z" opacity=".5"/>
            <path d="M76.306 65.117c-4.926 3.09-6.569 9.465-6.858 16.032h.966c.193-6.277 1.835-12.362 6.279-15.26 7.63-4.732 21.638.387 41.827 15.26h1.642C99.2 65.407 84.42 60 76.306 65.117z" opacity=".5"/>
        </g>
        <path fill="#F1EDEE" d="M172.393 87.085h148.762V-19.153H172.393V87.085z"/>
        <path fill="#F1EDEE" d="M245.554 72.552l45.015-49.931v95.13l-45.015-45.199z"/>
        <path fill="#99C1E3" d="M305.347-3.457H188.269v14.005h117.078V-3.458z"/>
        <path fill="#99C1E3" d="M266.901 10.547h-78.632V24.55h78.632V10.547z"/>
        <path fill="#fff" d="M266.901 35.66h-78.632v4.152h78.632V35.66zM290.567 50.821H188.269v4.153h102.298v-4.153z"/>
        <path fill="#CFD3DB" d="M575.167 364.319c5.709 0 10.336-4.626 10.336-10.334 0-5.707-4.627-10.334-10.336-10.334-5.708 0-10.336 4.627-10.336 10.334 0 5.708 4.628 10.334 10.336 10.334z"/>
        <path fill="#588095" d="M116.017 192.699c24.701 0 44.725-20.02 44.725-44.717 0-24.696-20.024-44.716-44.725-44.716s-44.726 20.02-44.726 44.716c0 24.697 20.025 44.717 44.726 44.717z"/>
        <path fill="#00B9FF" d="M117.076 149.237v43.461c23.763-.58 42.986-19.703 43.663-43.461h-43.663z"/>
        <path fill="#FBF7F8" d="M189.432 198.396h-23.957v23.952h23.957v-23.952zM206.72 198.396l-16.905 11.976 16.905 11.976v-23.952z"/>
        <path fill="#DFDFDF" d="M543.851 356.689h5.216s-2.318-39.984 42.697-52.346c45.112-12.362 48.686-16.612 45.981-24.338-2.704-7.63-19.803-19.703-62.499 1.641 0 0 11.495-8.788.386-13.81-10.336-4.733-31.781 11.01-31.781 30.422v58.431z"/>
        <path fill="#CFD3DB" d="M546.366 288.794v-41.723s8.212-.096 4.927 18.254c-3.381 18.253-4.927 23.469-4.927 23.469z"/>
        <path fill="#99C1E3" d="M503.291 306.663s-20.189-37.859-24.825-44.427c-4.637-6.471-7.245-23.855 5.506-30.036 6.375-3.09 12.654-.483 17.388 2.897 4.346 3.091 7.727 7.244 10.239 11.88 5.506 10.43 19.416 38.535 26.951 70.793v8.692h-21.638l-13.621-19.799z"/>
        <path fill="#588095" d="M503.291 306.663s-20.189-37.859-24.825-44.427c-4.637-6.471-7.245-23.855 5.506-30.036 6.375-3.09 12.654-.483 17.388 2.897 4.346 3.091 7.727 7.244 10.239 11.88 5.506 10.43 19.416 38.535 26.951 70.793v8.692h-21.638l-13.621-19.799z" opacity=".5"/>
        <path fill="#99C1E3" d="M509.583 356.691h-12.945s-5.989-8.692-22.797-19.123c-16.808-10.431-7.438-17.867-7.438-17.867s5.313-5.698 15.745 2.125c10.433 7.919 19.803 18.35 27.435 34.865zM541.548 356.304h-24.439s-6.086-18.157-23.184-37.183c-17.001-19.026-44.919-35.058-32.94-47.034 14.103-14.101 40.861 14.68 47.43 21.151 6.569 6.471 15.069 20.861 15.069 20.861s-2.994-28.201.676-46.938c3.575-18.736 7.632-23.855 17.485-22.309v111.839"/>
        <path fill="#588095" d="M475.866 282.711s26.661 20.765 42.117 46.455c0 0-22.507-28.491-42.117-46.455zM473.249 326.463s18.064 10.817 24.826 22.406c-.097 0-9.37-10.044-24.826-22.406zM538.552 261.368s-7.631 33.126-5.409 67.799c0 0 1.255-37.473 5.409-67.799z" opacity=".5"/>
        <path fill="#00B9FF" d="M376.937 316.514l-43.179-6.181-43.18 6.181c-20.093 37.666-24.247 104.885-24.247 104.885h134.853s-4.154-67.219-24.247-104.885z"/>
        <path fill="#588095" d="M417.995 346.55l17.678 41.529c6.472 15.839-5.216 33.32-22.314 33.32H273.483c9.853-7.727 21.058-13.521 33.037-17.095 5.506-1.642 82.399-19.026 82.399-19.026l-10.046-33.996 39.122-4.732z"/>
        <path fill="#00B9FF" d="M408.328 322.308c-2.898-7.243-7.921-13.617-14.49-17.77-.483-.29-.869-.58-1.352-.87-9.66-5.505-28.11-10.43-51.68-10.43h-15.843c-23.57 0-42.117 5.022-51.68 10.43-.483.29-.966.58-1.353.87-6.665 4.153-11.592 10.527-14.49 17.77l-9.66 24.242 85.104 10.237 85.104-10.237-9.66-24.242z"/>
        <path fill="#588095" d="M274.066 303.282c14.973 5.988 36.128 9.754 59.698 9.754 22.991 0 43.759-3.573 58.636-9.271-9.66-5.505-28.111-12.363-51.681-12.363h-15.746c-22.99-.096-41.151 6.471-50.907 11.88z"/>
        <path fill="#00B9FF" d="M389.197 331.194l28.787 15.356 3.767 8.886-46.947 22.31-24.343-46.552h38.736zM276.564 331.194l-28.787 15.356-3.864 8.886 46.948 22.31 24.343-46.552h-38.64z"/>
        <path fill="#588095" d="M256.952 274.115v90.302l-39.316-4.732 8.597-90.978 30.719 5.408z"/>
        <path fill="#588095" d="M244.402 284.642c-.193 0-18.161-15.935-18.161-15.935l4.058-33.803c.193-2.221.869-4.346 2.221-6.181 1.546-2.221 3.381-4.636 8.018-5.891 1.449-.387 2.898.676 2.898 2.221l.966 23.179.966-23.276c.097-1.738 1.449-3.09 3.188-3.09s3.091 1.352 3.188 3.09l1.352 34.093 1.932-9.465c.483-2.221 2.415-3.767 4.637-3.767.773 0 1.449.676 1.449 1.449v12.942c0 3.477-.773 6.857-2.319 9.947l-1.932 3.96-12.461 10.527zM382.638 367.603l-7.244-18.736 2.801-9.948c0-.096-1.642 11.01 4.443 28.684zM274.066 367.605l7.245-18.737-2.802-9.947c0-.097 1.642 11.01-4.443 28.684z"/>
        <path fill="#2E2C2F" d="M229.621 264.65l23.087-11.396.29 5.601c.097.097-9.08 2.512-23.377 5.795zM370.183 239.54s2.801-51.38-35.549-52.732h-1.738c-38.35 1.352-35.549 52.732-35.549 52.732-30.912 11.203-7.728 45.103-7.728 45.103h89.451s22.121-33.996-8.887-45.103z"/>
        <path fill="#588095" d="M349.219 256.634h-31.202l-1.255 42.978h33.713l-1.256-42.978z"/>
        <path fill="#2E2C2F" d="M317.148 284.642l22.121-9.078 7.921-12.073h-30.042v21.151z"/>
        <path fill="#588095" d="M332.606 276.626c12.075 0 22.025-9.948 22.025-22.02v-25.304c0-12.073-9.95-22.02-22.025-22.02s-22.024 9.947-22.024 22.02v25.304c0 12.169 9.949 22.02 22.024 22.02z"/>
        <path fill="#2E2C2F" d="M352.221 202.067c-2.802-2.704-6.086-5.022-9.66-6.664-11.592 2.705-11.979 4.636-23.667 6.568-2.029 2.801-14.78 6.374-15.649 10.044-2.125 8.885-1.739 18.253-2.222 27.429 2.029.193 4.154.289 6.279.289 15.456 0 29.656-5.215 41.055-14.004 4.347 6.085 9.563 11.397 15.649 15.743-.097-.87-.097-1.835.193-2.801.097-.676.29-1.256.386-1.932-.289-4.153-.772-8.306-1.545-12.362-1.642-8.402-4.734-16.322-10.819-22.31zM323.433 245.915c1.013 0 1.835-1.21 1.835-2.704 0-1.493-.822-2.704-1.835-2.704-1.014 0-1.836 1.211-1.836 2.704 0 1.494.822 2.704 1.836 2.704z"/>
        <path fill="#2E2C2F" d="M341.878 245.914c1.013 0 1.835-1.21 1.835-2.704 0-1.493-.822-2.704-1.835-2.704-1.014 0-1.836 1.211-1.836 2.704 0 1.494.822 2.704 1.836 2.704zM330.67 247.073l-2.608 9.079 5.893-1.256-3.961-.096.676-7.727zM329.906 262.429l4.637-.193-2.029 1.931s7.245 0 8.694-5.698l-11.302 3.96zM347.771 237.029l-9.177-2.028s1.738-5.602 9.177 2.028z"/>
        <path fill="#DFDFDF" d="M541.252 156.094v265.497H123.751V156.094h417.501zm7.728-7.726H116.023v280.949H548.98V148.368z"/>
    </g>
</svg>
