<svg xmlns="http://www.w3.org/2000/svg" width="240" height="115" fill="none" viewBox="0 0 240 115">
    <path fill="#DFDFDF" fill-rule="evenodd" d="M116.578 114h105.849c-3.996-25.784-26.157-45.54-52.943-45.54-26.749 0-48.947 19.756-52.906 45.54z" clip-rule="evenodd"/>
    <path fill="#BECBB2" d="M109.29 19.98H24.012V114h85.278V19.98z"/>
    <g fill="#fff" opacity=".2">
        <path d="M64.856 114h1.37c3.921-1.079 7.917-1.786 11.912-1.861 13.023-.297 23.383-2.418 31.152-6.436v-.409c-7.732 4.018-18.092 6.176-31.152 6.473-4.476.112-8.953.931-13.282 2.233zM78.21 83.082c-.332 2.306.593 4.316 2.739 5.953 6.178 4.762 15.982 2.12 28.339-7.553v-.484l-.111.112c-8.546 6.734-20.311 13.505-27.97 7.627-2.034-1.563-2.885-3.423-2.59-5.618 1.185-8.372 19.424-19.46 30.708-25.56v-.447c-3.145 1.674-6.807 3.758-10.507 6.064-12.949 8-19.867 14.697-20.607 19.906z" opacity=".2"/>
        <path d="M60.933 95.471c-4.587 6.958-10.544 13.171-16.796 18.566h.555c6.141-5.32 12.024-11.459 16.537-18.342C78.84 68.98 92.085 60.497 109.252 52.498v-.41c-17.278 8-30.597 16.483-48.319 43.383zM53.348 73.52c.037-2.456-.962-4.651-2.922-6.66-2.035-2.047-5.18-3.87-9.36-5.47-5.735-2.158-11.433-3.385-17.056-3.72v.372c5.586.335 11.247 1.6 16.907 3.72 8.066 3.014 12.136 6.995 12.061 11.758-.148 9.227-15.39 19.98-28.968 27.793v.446c1.369-.781 2.774-1.6 4.18-2.456C44.765 89.296 53.237 80.59 53.348 73.52z" opacity=".2"/>
        <path d="M24.01 82.635v.633c.703.93 1.036 1.972 1.036 3.05 0 1.08-.407 2.196-1.036 3.312v.744c.925-1.451 1.406-2.79 1.406-4.055 0-1.377-.444-2.605-1.406-3.684zM70.921 31.625c-5.771 10.195-7.658 23.105-9.47 35.57-1.296 8.929-2.517 17.338-5.07 24.704-3.514 10.12-13.355 17.264-23.9 22.138h.888c10.323-4.911 19.905-11.98 23.383-22.026 2.552-7.404 3.773-15.85 5.105-24.78C64.521 48.927 67.26 30.175 81.8 19.98h-.555c-4.255 3.013-7.659 6.883-10.323 11.645z" opacity=".2"/>
        <path d="M82.095 32.555C75.103 38.1 71.07 44.573 70.182 51.828c-.48 3.72.37 6.214 2.516 7.367 5.106 2.716 17.389-2.046 36.59-14.176v-.483c-15.724 9.934-30.67 17.338-36.405 14.287-1.998-1.079-2.775-3.423-2.33-6.995.887-7.143 4.846-13.506 11.764-18.975 5.55-4.39 13.023-8.223 22.162-11.348 1.59-.558 3.181-1.042 4.735-1.525h-1.295c-1.184.372-2.368.744-3.551 1.153-9.176 3.163-16.686 6.995-22.273 11.422zM56.087 47.847c-1.443 3.013-3.737 4.874-6.807 5.58-6.734 1.526-16.353-2.79-25.306-8.296v.446c8.953 5.47 18.572 9.748 25.343 8.223 3.181-.707 5.55-2.68 7.066-5.804 2.109-4.39 3.404-9.637 4.736-15.218 1.036-4.353 2.108-8.743 3.588-12.762h-.333c-1.48 4.019-2.515 8.372-3.551 12.688-1.37 5.543-2.627 10.79-4.736 15.143z" opacity=".2"/>
        <path d="M49.835 41.262c-5.291 2.716-13.948-1.935-25.861-13.767v.521c11.913 11.757 20.644 16.334 26.009 13.58 3.995-2.046 6.03-7.962 6.03-17.635 0-1.377-.037-2.716-.11-4.018h-.408c.481 8.036-.148 18.491-5.66 21.319z" opacity=".2"/>
    </g>
    <path fill="#DFDFDF" d="M109.289 8.855h-8.25v8.297h8.25V8.855z"/>
    <path fill="#99C1E3" d="M147.284 27.607h-35.702V10.641h35.702v16.966zm-34.925-.744h34.222V11.385h-34.222v15.478z"/>
    <path fill="#588095" d="M154.612 61.018c-.666-7.664-3.885-17.524-16.02-16.705-19.645 1.302-12.875 20.65-12.875 20.65-10.174 11.235 2.775 28.574 2.775 28.574s33.482 19.644 37.7-3.2c4.255-22.845-11.58-29.319-11.58-29.319z"/>
    <path fill="#7B997C" fill-rule="evenodd" d="M186.504 114h-84.316s7.547-27.98 39.475-34.08c41.326-7.814 44.841 34.08 44.841 34.08z" clip-rule="evenodd"/>
    <path fill="#fff" d="M109.843 28.053V78.32H30.67V28.053h79.173zm.74-.744H29.93v51.754h80.653V27.31z"/>
    <path fill="#C4C7D3" fill-rule="evenodd" d="M143.292 86.393c6.253-2.232 11.247-5.097 12.875-7.18-4.217-.484-9.027-.336-14.503.706-2.145.41-2.959.558-4.846 1.154-6.105 2.455-9.878 5.469-9.361 6.994.666 1.972 7.77 1.228 15.835-1.674z" clip-rule="evenodd"/>
    <path fill="#C4C7D3" d="M130.043 61.613s-.739 15.143 6.771 15.143 12.061-10.901 12.061-10.901l-1.073-9.6L131.19 57l-1.147 4.613z"/>
    <path fill="#C4C7D3" d="M137.7 86.393l10.582-4.278-3.367-20.24h-11.321l4.106 24.518z"/>
    <path fill="#2E2C2F" d="M135.777 74.933l7.4-1.228-6.364 7.367-1.036-6.139z"/>
    <path fill="#C4C7D3" d="M130.043 61.613s-.739 15.143 6.771 15.143 12.061-10.901 12.061-10.901l-1.073-9.6L131.19 57l-1.147 4.613z"/>
    <path fill="#2E2C2F" d="M135.777 70.84l4.44-1.45s-.777 2.009-3.404 2.232l.518-.819-1.554.038zM135.892 65.037l-.333 2.939h1.665l-1.813.484c-.259.074-.481-.186-.407-.41l.888-3.013zM140.035 64.888c.307 0 .555-.467.555-1.042s-.248-1.042-.555-1.042c-.306 0-.555.467-.555 1.042s.249 1.042.555 1.042zM133.594 65.074c.307 0 .555-.466.555-1.042 0-.575-.248-1.042-.555-1.042-.306 0-.555.467-.555 1.042 0 .576.249 1.042.555 1.042z"/>
    <path fill="#588095" d="M146.47 71.213l-.629-4.54c-2.257-1.674-2.109-6.362-2.109-6.362-2.146-.446-3.663-2.939-3.663-2.939-3.588 4.13-9.989 5.395-9.989 5.395h-.592v-8.446l20.941-.297-1.221 15.626-2.738 1.563z"/>
    <path fill="#2E2C2F" d="M112.879 114l9.36-13.506L117.541 114h-4.662z"/>
    <path fill="#C4C7D3" d="M102.188 114l33.593-8.967c1.591-.372 3.293-.223 4.772.447l7.067 3.162-1.887 1.042 6.475 4.353h-50.02V114z"/>
    <path fill="#F8F5F6" d="M210.626 81.891h-50.242L150.395 114H200.6l10.026-32.109z"/>
    <path fill="#DFDFDF" d="M183.599 101.479c1.788-1.534 2.335-3.841 1.221-5.155-1.114-1.313-3.466-1.135-5.254.398-1.788 1.533-2.335 3.841-1.222 5.154 1.114 1.314 3.466 1.136 5.255-.397z"/>
    <path fill="#F8F5F6" d="M124.941 112.065l.629 1.935h33.039l-.629-1.935h-33.039z"/>
    <path fill="#588095" d="M99.264 87.732l-3.847-11.794s-1.776-4.8-5.18-4.837c0 0-.703-1.711-3.996-1.302 0 0-1.517-1.488-5.031-.819-3.515.633-6.882 1.712-6.882 1.712l6.77 11.46 18.166 5.58zM83.87 54.582l1.147 7.44-5.439.522 4.292-7.962z"/>
    <path fill="#2E2C2F" d="M81.354 60.274l3.663 1.749-5.439.52 1.776-2.269z"/>
    <path fill="#588095" d="M62.45 67.008l.591-5.73 2.257-18.677 20.94 3.832-3.884 20.65c-.222 1.116-1 2.009-2.035 2.381l-6.438 2.27-11.432-4.726z"/>
    <path fill="#588095" d="M66.594 52.386l-1.405-.111c-1.665-.112-3.108 1.116-3.22 2.79l-.073 1.19c-.185 2.382 1.628 4.503 3.995 4.689l.74.037v-8.595h-.037z"/>
    <path fill="#2E2C2F" d="M63.043 61.279l1.924-20.873s11.173-3.944 24.529-1.786c0 0-.333 8.52-5.624 11.46 0 0-1.22 7.292-4.957 8.52 0 0-2.96 7.106-12.246 4.874-1.37-.335-2.775-.707-3.626-2.195z"/>
    <path fill="#588095" d="M83.169 53.465l-1.406-.111c-1.665-.112-3.108 1.116-3.219 2.79l-.074 1.191c-.185 2.381 1.628 4.502 3.996 4.688l.703-8.558z"/>
    <path fill="#2E2C2F" d="M83.648 53.614l2.035.41s.925-1.786-.444-1.489c-1.22.26-1.59 1.08-1.59 1.08z"/>
    <path fill="#00B9FF" d="M91.68 82.784s7.103 1.488 9.175 5.171c2.072 3.684 9.027 26.045 9.027 26.045h-7.695L91.68 82.784z"/>
    <path fill="#2D2C2F" d="M97.118 84.719c-3.403-1.6-5.438-1.972-5.438-1.972l3.736 11.125 8.732 14.994-7.03-24.147z"/>
    <path fill="#00B9FF" d="M55.273 70.766l1.37-5.32s19.867-3.535 27.784 10.901l-29.154-5.58z"/>
    <path fill="#2D2C2F" d="M56.013 67.902l11.655 1.972-12.395.893.74-2.865z"/>
    <path fill="#00B9FF" d="M92.603 81.482c-1.332-2.79-3.477-5.172-6.178-6.66-3.663-2.047-9.805-4.242-19.794-5.023-23.789-3.423-30.892 11.31-30.892 11.31l-15.317 32.928H108.068L92.603 81.482z"/>
    <path fill="#2D2C2F" d="M80.098 98.634L87.275 114h3.81L80.099 98.634z"/>
    <path fill="#2E2C2F" d="M17.833 94.02H66.67c1.664 0 3.144 1.08 3.625 2.679l4.847 17.338H18.314l-4.143-15.068c-.74-2.456 1.072-4.949 3.662-4.949zM142.143 61.204l-3.737-.372s.629-2.455 3.737.372zM131.598 61.874l2.811-1.042s-.444-1.042-1.479-.707c-1.036.335-1.332 1.451-1.332 1.749z"/>
    <path fill="#99C1E3" d="M188.945 61.316c9.583 0 17.352-7.813 17.352-17.45s-7.769-17.45-17.352-17.45-17.351 7.813-17.351 17.45 7.768 17.45 17.351 17.45z"/>
    <path fill="#99C1E3" d="M184.952 55.958h-17.167l12.727-12.501 4.44 12.501z"/>
    <path fill="#fff" d="M188.948 48.219c3.841 0 6.955-3.132 6.955-6.995s-3.114-6.994-6.955-6.994c-3.842 0-6.956 3.131-6.956 6.994s3.114 6.995 6.956 6.995zM192.572 49.372h-7.252v2.865h7.252v-2.865zM191.279 53.13h-4.662v1.154h4.662V53.13z"/>
    <path fill="#DFDFDF" d="M189.575 12.427h-1.295v8.185h1.295v-8.185zM211.509 22.1l-.915-.92-5.756 5.788.916.92 5.755-5.787zM220.171 44.524V43.22h-8.139v1.303h8.139zM210.564 66.548l.915-.92-5.755-5.788-.915.92 5.755 5.788zM172.162 27.907l.915-.92-5.755-5.789-.916.921 5.756 5.788z"/>
</svg>
