<svg xmlns="http://www.w3.org/2000/svg" width="240" height="114" fill="none" viewBox="0 0 240 114">
    <path fill="#F1EDEE" fill-rule="evenodd" d="M20.83 113.926h198.192s-23.937 0-39.105-3.942c-15.169-3.941-24.197-6.73-37.146-6.432-10.026.223-15.834-3.421-17.906-5.057-1.073-.855-2.183-1.636-3.367-2.38C109.4 88.79 55.569 60.383 20.829 113.926z" clip-rule="evenodd"/>
    <path fill="#DFDFDF" d="M157.571 17.587h-60.01v30.787h60.01V17.587z"/>
    <path fill="#7B997C" d="M72.774 104.741c24.846 0 44.988-20.242 44.988-45.213 0-24.97-20.142-45.213-44.988-45.213-24.847 0-44.989 20.242-44.989 45.213 0 24.97 20.142 45.213 44.989 45.213z"/>
    <g fill="#BECBB2" opacity=".2">
        <path d="M66.41 14.76c-4.772 2.343-10.137 4.388-15.686 5.318-.296.186-.592.335-.888.52 6.29-.892 12.394-3.309 17.648-5.986-.37.037-.74.075-1.073.149zM45.063 44.693c.222-1.897-.592-3.607-2.368-4.983-2.516-1.97-5.734-2.528-9.471-1.673-.074.149-.148.297-.222.409 3.478-.855 6.733-.558 9.471 1.562 1.702 1.301 2.442 2.9 2.257 4.647-.592 5.094-8.88 11.23-16.87 16.026v.446c.221-.111.406-.26.628-.372 10.47-6.395 16.057-11.787 16.575-16.062z" opacity=".2"/>
        <path d="M59.086 34.802c5.105-7.957 12.542-14.65 20.052-20.078-.185-.037-.333-.037-.518-.075-7.436 5.392-14.762 12.085-19.83 19.93-11.173 17.29-20.275 25.098-30.634 30.712 0 .15.037.26.037.41 10.47-5.615 19.646-13.423 30.893-30.899zM65.782 53.096c.037 4.09 3.552 7.585 10.433 10.3 6.474 2.565 12.468 3.569 17.87 3.569 9.73 0 17.573-3.272 23.197-6.73.185-.112.333-.224.518-.335v-.372-.074c-.222.148-.481.297-.703.446-8.658 5.354-22.753 10.225-40.734 3.123-6.734-2.677-10.174-6.023-10.174-9.965-.037-5.614 6.918-12.716 20.09-20.524 5.623-3.31 11.283-6.098 15.168-7.92-.111-.074-.222-.186-.333-.26-3.922 1.822-9.508 4.61-15.058 7.883C72.552 40.23 65.708 47.22 65.782 53.096z" opacity=".2"/>
        <path d="M88.609 43.13c.037 2.604 2.33 4.76 6.844 6.47 4.255 1.6 8.139 2.231 11.691 2.231 3.626 0 6.882-.669 9.693-1.636-.037-.111-.037-.26-.074-.371-5.438 1.933-12.653 2.64-21.162-.558-4.366-1.636-6.585-3.718-6.622-6.135-.037-4.983 9.1-10.709 16.611-14.576-.074-.111-.185-.185-.259-.297-1.11.558-2.294 1.19-3.44 1.822-8.843 5.02-13.32 9.37-13.282 13.05zM52.132 87.377c4.55-8.291 5.845-18.925 7.103-29.225.888-7.362 1.739-14.278 3.7-20.301 3.403-10.523 15.353-16.806 26.23-20.45l-.554-.223c-10.84 3.68-22.643 10.039-26.046 20.561-1.961 6.061-2.812 13.014-3.7 20.376C57.126 72.32 55.35 86.857 45.25 95.297c.074.075.185.149.259.223 2.664-2.23 4.847-4.908 6.623-8.143z" opacity=".2"/>
        <path d="M52.35 70.683c.295-3.087-.445-5.169-2.258-6.135-3.403-1.86-10.433.074-21.014 5.763.037.148.074.26.111.409 9.212-4.945 17.093-7.846 20.755-5.838 1.665.93 2.368 2.863 2.072 5.8-.814 8.106-6.474 13.981-13.43 18.183.074.111.185.223.26.297 1.48-.892 2.811-1.822 4.069-2.751 5.624-4.462 8.805-9.742 9.434-15.728zM64.08 74.29c1.147-2.455 2.996-3.942 5.475-4.463 10.322-2.082 29.487 12.828 37.219 19.335.074-.112.148-.186.259-.297-2.849-2.38-7.177-5.875-12.024-9.222-11.358-7.882-19.941-11.303-25.528-10.15-2.627.52-4.55 2.082-5.771 4.648-1.665 3.606-2.627 7.92-3.626 12.493-1.11 5.168-2.257 10.41-4.514 14.724.111.037.222.111.37.148 2.257-4.313 3.404-9.593 4.55-14.76.963-4.611 1.925-8.924 3.59-12.457z" opacity=".2"/>
        <path d="M69.184 79.495c-3.293 1.599-4.846 6.47-4.661 14.464.11 4.201.666 8.217.999 10.188.11.037.258.037.37.074-.334-1.934-.925-5.986-1.036-10.262-.111-5.392.555-12.196 4.44-14.13 5.068-2.49 14.28 3.533 27.414 17.96.111-.075.222-.15.333-.186C83.798 82.99 74.438 76.929 69.184 79.495z" opacity=".2"/>
    </g>
    <path fill="#BECBB2" fill-rule="evenodd" d="M97.561 21.789v26.547h18.832c-2.775-11.042-9.619-20.45-18.832-26.547zM107.032 88.865c-16.464-6.767-42.325-12.493-65.485 3.198 8.102 7.845 19.09 12.679 31.225 12.679 13.726 0 25.972-6.173 34.26-15.877z" clip-rule="evenodd"/>
    <path fill="#2E2C2F" fill-rule="evenodd" d="M54.125 107.307l2.96 6.693h26.712l-4.699-19.223-23.974-1.636-.999 14.166z" clip-rule="evenodd"/>
    <path fill="#99C1E3" d="M196.418 90.984c1.165 0 2.109-.948 2.109-2.119 0-1.17-.944-2.12-2.109-2.12-1.164 0-2.108.95-2.108 2.12 0 1.17.944 2.12 2.108 2.12z"/>
    <path fill="#BECBB2" d="M96.082 52.018h-2.59v-2.603h.74v1.859h1.85v.744zM154.906 52.018h-4.217v-.744h4.217v.744zm-8.435 0h-4.218v-.744h4.218v.744zm-8.398 0h-4.218v-.744h4.218v.744zm-8.399 0h-4.217v-.744h4.217v.744zm-8.398 0h-4.218v-.744h4.218v.744zm-8.398 0h-4.218v-.744h4.218v.744zm-8.399 0h-4.217v-.744h4.217v.744zM161.676 52.017h-2.59v-.743h1.85v-1.86h.74v2.603zM161.677 44.693h-.739v-4.685h.739v4.685zm0-9.37h-.739V30.6h.739v4.722zm0-9.407h-.739V21.23h.739v4.685zM161.676 16.509h-.74v-1.86h-1.85v-.743h2.59v2.603zM154.906 14.65h-4.217v-.744h4.217v.744zm-8.435 0h-4.218v-.744h4.218v.744zm-8.398 0h-4.218v-.744h4.218v.744zm-8.399 0h-4.217v-.744h4.217v.744zm-8.398 0h-4.218v-.744h4.218v.744zm-8.398 0h-4.218v-.744h4.218v.744zm-8.399 0h-4.217v-.744h4.217v.744zM94.232 16.509h-.74v-2.603h2.59v.744h-1.85v1.859zM94.232 44.693h-.74v-4.685h.74v4.685zm0-9.37h-.74V30.6h.74v4.722zm0-9.407h-.74V21.23h.74v4.685z"/>
    <path fill="#BECBB2" fill-rule="evenodd" d="M214.139 19.632h-35.443v18.145h8.88v5.168l5.142-5.168h21.421V19.632z" clip-rule="evenodd"/>
    <path fill="#99C1E3" d="M196.418 50.456c1.165 0 2.109-.949 2.109-2.12 0-1.17-.944-2.119-2.109-2.119-1.164 0-2.108.95-2.108 2.12 0 1.17.944 2.119 2.108 2.119z"/>
    <path fill="#99C1E3" d="M196.788 89.237H123.09V47.965h73.698v41.272zm-72.958-.744h72.218V48.708H123.83v39.785z"/>
    <path fill="#99C1E3" d="M196.249 48.007l-72.96 40.511.358.651 72.96-40.511-.358-.651z"/>
    <path fill="#99C1E3" d="M123.651 48.028l-.358.65 72.952 40.53.358-.652-72.952-40.528z"/>
    <path fill="#99C1E3" d="M123.46 50.456c1.165 0 2.109-.949 2.109-2.12 0-1.17-.944-2.119-2.109-2.119-1.164 0-2.108.949-2.108 2.12 0 1.17.944 2.119 2.108 2.119zM123.46 90.984c1.165 0 2.109-.949 2.109-2.12 0-1.17-.944-2.118-2.109-2.118-1.164 0-2.108.948-2.108 2.119 0 1.17.944 2.12 2.108 2.12z"/>
    <path fill="#588095" d="M141.698 62.28h-28.229v16.509h28.229V62.28z"/>
    <path fill="#00B9FF" d="M148.991 25.59l-2.093-2.103-9.914 9.964 2.092 2.103 9.915-9.964z"/>
    <path fill="#00B9FF" d="M146.93 35.532l2.092-2.103-9.914-9.965-2.093 2.103 9.915 9.965z"/>
    <path fill="#fff" d="M77.99 57.395c.494-.198.263-1.951-.516-3.916-.778-1.965-1.81-3.398-2.303-3.2-.494.197-.263 1.95.516 3.915.778 1.965 1.81 3.398 2.303 3.2z"/>
    <path fill="#99C1E3" fill-rule="evenodd" d="M77.99 59.529l1.665-1.71-3.996-4.128-2.885-7.474-9.065 2.12-3.551 21.156-1.443 6.99 12.69.856 1.369-6.99 7.362-4.983-2.146-5.837z" clip-rule="evenodd"/>
    <path fill="#2E2C2F" fill-rule="evenodd" d="M60.157 69.493l-9.286-14.24 20.163-18.815s9.657 4.685-2.071 16.472c0 0 .629 11.787-8.806 16.583zM66.89 65.366l4.514 11.973 1.37-6.99 7.362-4.983-4.884 2.157c-1.554.706-3.367.632-4.884-.223l-3.477-1.934zM74.77 61.982h2.664s-2.034 1.376-2.663 0zM77.991 59.529l-.296-.67 1.961-1.04-1.665 1.71z" clip-rule="evenodd"/>
    <path fill="#fff" d="M76.183 58.548c.57-.228.302-2.253-.598-4.524-.899-2.27-2.09-3.926-2.66-3.698-.569.228-.301 2.253.598 4.524.9 2.27 2.09 3.926 2.66 3.698z"/>
    <path fill="#fff" d="M73.824 51.648l-9.932 5.763.222.386 9.932-5.763-.222-.386z"/>
    <path fill="#99C1E3" fill-rule="evenodd" d="M68.224 63.135l-3.59-6.172s-4.66 2.194-2.441 5.317c2.257 3.123 5.476 3.086 5.476 3.086l.555-2.23z" clip-rule="evenodd"/>
    <path fill="#fff" d="M75.66 51.757h-1.296v.335h1.295v-.335z"/>
    <path fill="#99C1E3" fill-rule="evenodd" d="M69.406 79.235l9.656-6.544 6.992-.41s14.022-.817 33.409-19.817l7.362-2.231-1.258 8.849S108.29 85.779 82.244 91.914c-26.083 6.135-12.838-12.68-12.838-12.68z" clip-rule="evenodd"/>
    <path fill="#00B9FF" fill-rule="evenodd" d="M75.325 114H37.7l8.51-26.845c2.441-7.697 9.323-13.088 17.351-13.534l22.531-1.339.666 20.86-18.72 4.015 10.766.818L75.325 114z" clip-rule="evenodd"/>
    <path fill="#99C1E3" fill-rule="evenodd" d="M121.348 56.368l4.218 2.714 3.218-3.83c.518-.595.814-1.338.888-2.156.148-1.525.074-4.127-1.516-6.395 0 0 2.515-1.934 1.109-3.57l-.629-.483-2.182 1.19-.703-.93-2.812 2.157c-.999.78-1.776 1.784-2.22 2.974l-1.813 4.87 2.442 3.459z" clip-rule="evenodd"/>
    <path fill="#2E2C2F" fill-rule="evenodd" d="M129.301 43.131l14.799-14.65-21.088 17.736 5.66-3.57.629.484z" clip-rule="evenodd"/>
    <path fill="#2E2C2F" fill-rule="evenodd" d="M125.827 42.908l-2.182 1.673-1.258 2.12 3.958-3.086-.518-.707z" clip-rule="evenodd"/>
</svg>
