<svg xmlns="http://www.w3.org/2000/svg" width="239" height="114" fill="none" viewBox="0 0 239 114">
    <path fill="#F8F5F6" d="M226.77 23.811H66.097v81.177H226.77V23.811z"/>
    <path fill="#BDCAB1" d="M115.161 7.326h-104.3V64.4h104.3V7.326z"/>
    <path fill="#fff" d="M110.167 23.994h-44.07v27.584h44.07V23.994zM56.769 13.151H16.885v4.066h39.883v-4.066z"/>
    <g opacity=".25">
        <path fill="#fff" d="M56.769 35.827H16.885v.55h39.883v-.55zM56.769 39.6H16.885v.55h39.883v-.55zM56.769 43.373H16.885v.55h39.883v-.55zM56.769 47.146H16.885v.55h39.883v-.55zM56.769 50.882H16.885v.55h39.883v-.55z" opacity=".25"/>
    </g>
    <path fill="#fff" d="M54.418 19.892H16.885v4.066h37.533v-4.066zM41.638 26.632H16.885v4.066h24.753v-4.066z"/>
    <path fill="#7B997C" d="M82.586 13.48h-16.49v7.034h16.49v-7.033z"/>
    <path fill="#7B997C" fill-rule="evenodd" d="M151.887 27.474l-5.802-3.7s-3.012-8.498 4.443-12.345c7.456-3.846 15.388 2.052 15.388 2.052s7.786 5.458 6.023 15.678c0 0 5.986 2.894 2.167 9.049 0 0 16.747 13.224 8.41 31.796-8.337 18.573-29.123 18.317-30.408 18.317-1.286 0-15.866-22.822-15.866-22.822l3.159-12.675 10.834-11.869 1.652-13.48z" clip-rule="evenodd"/>
    <path fill="#C4C7D3" fill-rule="evenodd" d="M171.459 57.403L167.53 67.88l7.639 6.704c.991.879 1.432 2.27 1.101 3.553l-4.664 18.096s-5.545 4.103-6.757 6.301c0 0-2.461 3.224-1.102 7.51l1.102 3.443 7.382-6.154.514 2.198s2.975-.843 4.774-4.469c1.175-2.308 7.308-14.946 11.605-23.811 2.608-5.385 1.726-11.796-2.203-16.302l-8.778-10-6.684 2.454z" clip-rule="evenodd"/>
    <path fill="#2E2C2F" fill-rule="evenodd" d="M150.05 39.087l-2.35-.037s-11.238 3.48-9.659 13.627c1.579 10.148 20.566.88 20.419.22-.184-.696-8.41-13.81-8.41-13.81z" clip-rule="evenodd"/>
    <path fill="#C4C8D4" fill-rule="evenodd" d="M130.953 55.754l-7.896 1.649-19.575-16.998s-3.195-3.846-7.859-4.249c-.514-.037-.808.55-.477.916l1.358 1.575s-1.8-1.392-6.17-1.465c0 0-3.966-.367-6.022.476-.551.22-.551.989 0 1.209 2.203.952 7.712 3.7 13.735 9.121l17.775 19.782c2.901 3.077 7.014 4.762 11.238 4.579l12.523-.586-8.63-16.009z" clip-rule="evenodd"/>
    <path fill="#99C1E3" fill-rule="evenodd" d="M128.458 78.943c-4.665 11.21-7.345 25.276-8.631 33.335h53.509c-3.526-17.766-11.311-32.053-11.311-32.053 6.426-18.573 16.122-25.24 16.122-25.24l-1.689-2.051c-11.716-12.455-25.598-9.085-28.94-7.986-3.342 1.099-19.391 10.404-19.391 10.404l1.139 9.011-1.543 1.832c-5.839 8.059.735 12.748.735 12.748z" clip-rule="evenodd"/>
    <g fill="#fff" opacity=".2">
        <path d="M134.44 51.762c7.713-.88 15.168-4.69 20.383-8.023-.257 0-.514.037-.735.037-4.921 3.077-11.715 6.52-18.803 7.51-.294.146-.551.293-.845.476zM131.648 70.26c.184-1.501-.44-2.82-1.873-3.919-.44-.366-.918-.623-1.432-.88l-.257.294c.514.22.992.513 1.469.879 1.322 1.026 1.91 2.198 1.726 3.553-.257 2.052-2.13 4.36-4.774 6.594l.22.33c3.048-2.564 4.701-4.872 4.921-6.85zM142.264 62.422c-5.032 7.766-9.549 13.04-13.993 16.96-.11.257-.22.513-.293.733 4.664-3.993 9.364-9.414 14.616-17.51 4.885-7.51 12.45-13.627 19.575-18.206-.184-.037-.331-.074-.514-.11-7.052 4.579-14.544 10.66-19.391 18.133zM147.736 76.745c.036 3.187 2.791 5.898 8.153 7.986 3.342 1.319 6.5 2.088 9.475 2.49-.074-.146-.11-.256-.184-.402-2.864-.403-5.949-1.172-9.144-2.418-5.215-2.051-7.896-4.616-7.933-7.656-.073-8.865 21.998-19.525 29.197-22.749l-.257-.293c-7.419 3.297-29.417 13.884-29.307 23.042z" opacity=".2"/>
        <path d="M165.548 69.052c0 .586.184 1.172.478 1.685.073-.146.147-.256.22-.403-.22-.403-.33-.842-.33-1.319-.037-2.16 2.24-4.542 5.251-6.703.257-.33.478-.66.735-.953-4.224 2.858-6.39 5.458-6.354 7.693zM145.24 64.84c-1.542 4.688-2.204 10.073-2.901 15.788-1.58 12.858-3.195 26.082-15.241 31.65h.771c3.966-1.978 7.051-4.982 9.255-8.975 3.562-6.447 4.59-14.653 5.545-22.638.698-5.678 1.359-11.063 2.865-15.716 3.011-9.158 14.433-14.286 24.789-17.07-.147-.11-.293-.184-.477-.293-.184.036-.404.11-.588.146-9.218 2.638-20.933 7.73-24.018 17.107z" opacity=".2"/>
        <path d="M137.342 90.372c.258-2.418-.367-4.03-1.762-4.799-1.91-1.026-5.252-.55-9.99 1.392-.036.147-.11.293-.147.476 4.407-1.831 8.007-2.6 9.953-1.538 1.285.696 1.8 2.198 1.579 4.432-.844 8.426-8.52 13.738-16.306 16.961-.037.147-.037.293-.073.44 10.246-4.213 16.012-10.147 16.746-17.364zM150.637 89.383c-2.056.403-3.599 1.649-4.517 3.627-1.322 2.784-2.056 6.117-2.828 9.671-.734 3.297-1.469 6.667-2.681 9.597h.404c1.212-2.93 1.91-6.227 2.645-9.487.771-3.517 1.505-6.85 2.791-9.598.881-1.868 2.313-3.04 4.26-3.444 3.966-.805 10.283 1.576 18.289 6.887-.073-.22-.147-.403-.22-.622-6.244-4.103-13.295-7.62-18.143-6.63z" opacity=".2"/>
        <path d="M150.415 97.15c-2.57 1.245-3.782 5.055-3.636 11.245.037 1.356.147 2.675.258 3.883h.367c-.514-5.201-.588-12.93 3.195-14.762 4.04-1.979 11.495 3.003 22.145 14.762h.478c-10.908-12.125-18.583-17.18-22.807-15.129z" opacity=".2"/>
    </g>
    <path fill="#2E2C2F" fill-rule="evenodd" d="M173.333 112.278c-.992-5.092-2.351-9.891-3.783-14.177l-38.451 14.177h42.234z" clip-rule="evenodd"/>
    <path fill="#C4C8D4" fill-rule="evenodd" d="M150.785 14.616s-5.839 9.195-6.684 16.265c-.845 7.07 3.599 8.17 3.599 8.17l-.037 5.824 12.597 2.014 5.656-26.521-15.131-5.752z" clip-rule="evenodd"/>
    <path fill="#2D2C2F" fill-rule="evenodd" d="M157.248 34.8c-.992 1.466-3.746 3.408-7.566 3.48-3.562.074-4.48-1.171-4.59-1.318 1.102 1.685 2.607 2.088 2.607 2.088l-.036 5.825c7.565-4.176 9.585-10.074 9.585-10.074z" clip-rule="evenodd"/>
    <path fill="#C4C8D4" fill-rule="evenodd" d="M157.103 43.3l-9.438 1.611s-3.562 3.297-4.591 10.807c0 0 8.961 1.209 18.914-9.818l-4.885-2.6z" clip-rule="evenodd"/>
    <path fill="#7B997C" fill-rule="evenodd" d="M149.315 13.48s.478 5.569 6.538 9.415c0 0 .036 2.858 2.019 5.495 0 0 2.02-2.784 3.783-.66 1.763 2.126-.771 4.873-3.599 6.924 0 0-3.709 9.195 2.277 15.716 5.986 6.52 18.987 3.883 18.987 3.883l-11.275-24.25-2.13-12.42-16.6-4.102z" clip-rule="evenodd"/>
    <path fill="#2D2C2F" fill-rule="evenodd" d="M150.416 39.746l-2.755 5.165-2.313-2.894 2.35-2.967 2.718.696zM151.371 32.127s-4.003 3.077-5.803.33c0 0 .294.768 5.803-.33zM146.524 29.233l-2.423-1.283c-.368-.183-.331-.696.036-.842l3.746-2.125-3.048 2.748 1.689 1.502zM154.421 24.947l-2.754-2.675s2.203-1.098 2.754 2.675zM148.728 21.65l-2.608.293c0-.037 2.608-2.93 2.608-.293z" clip-rule="evenodd"/>
    <path fill="#2D2C2F" d="M151.819 26.134c.177-.452.107-.902-.158-1.005-.264-.104-.622.18-.8.631-.177.453-.107.903.158 1.006.264.103.622-.18.8-.632zM147.148 24.186c.177-.452.107-.902-.158-1.006-.264-.103-.622.18-.8.632-.177.452-.107.902.158 1.006.264.103.623-.18.8-.632z"/>
    <path fill="#2E2C2F" fill-rule="evenodd" d="M160.223 62.165l7.308 5.752s-4.444 9.487-5.546 12.308l-1.762-18.06z" clip-rule="evenodd"/>
    <path fill="#C4C7D3" fill-rule="evenodd" d="M172.635 92.24l-1.029 3.993s-5.545 4.103-6.757 6.301c0 0-2.461 3.224-1.102 7.51l.294.916c.441 1.318 1.946 1.978 3.195 1.355l5.509-2.747s2.975-.843 4.774-4.47c.735-1.428 3.342-6.813 6.243-12.82h-11.127v-.038z" clip-rule="evenodd"/>
    <path fill="#2D2C2F" d="M125.296 72.386c.074-2.088.772-4.103 2.057-5.752l.331-.44 1.542-1.83 6.023-8.133-16.159 14.213c.037 0 2.571 1.905 6.206 1.942z"/>
    <path fill="#DFDFDF" d="M222.18 28.427h-31.951v12.858h31.951V28.427z"/>
    <path fill="#2E2C2F" fill-rule="evenodd" d="M137.859 112.279l.294-6.045c.367-7.583-5.509-14.067-13.148-14.396-7.014-.33-13.184 4.652-14.286 11.575l-1.065 6.631 18.877 2.235h9.328zM61.472 112.278H77.08l8.227-1.282-4.518-17.876c-1.8-7.144-9.732-10.844-16.416-7.657-5.656 2.711-8.447 9.122-6.574 15.093l3.673 11.722z" clip-rule="evenodd"/>
    <path fill="#7A997B" d="M4.143 112.278h71.283c-3.415-8.205-8.19-16.264-19.28-20.074-.514-3.773-3.269-6.704-5.766-8.645 2.24-.403 3.856-2.491 3.562-4.836l-.404-3.407.918-.622c.33-.22.367-.66.147-.953l-1.469-1.795-.404-3.26c2.35-4.433-.55-16.631-15.792-13.078-13.845 3.224-9.989 16.778-8.263 21.357-5.472 3.04-6.757 8.096-7.014 10.953 0 0-12.67 6.85-11.532 16.631-2.424 2.601-4.407 5.312-5.986 7.729z"/>
    <path fill="#588095" fill-rule="evenodd" d="M65.806 112.279h67.17c-4.407-2.711-11.238-5.788-21.117-7.437l-.477-3.956c-1.69-.037-3.305-.073-4.811-.037l-.221-2.014c1.506-1.063 2.388-2.785 2.314-4.616l-1.249-31.394c-9.769-.22-18.583 5.128-23.173 8.352-1.322.952-1.947 2.967-1.543 4.542l2.094 8.06c-2.608 2.454.77 7.582 2.57 9.927l2.204 8.572c-3.305.733-5.031 1.612-5.95 2.308-10.026 1.428-15.167 4.762-17.811 7.693zM230.924 112.279l-1.065-3.48c-1.873-6.191-6.831-10.77-12.78-12.382l-2.534-4.616c-.845.073-1.69.147-2.497.22.44-7.326 1.211-14.653 2.24-21.943l.11-.696c.845-5.751-2.791-11.283-8.484-12.675-1.101-.293-2.24-.476-3.415-.586l-10.246-.916c-9.218-.842-4.444 6.375-3.379 7.84-.992 1.721-1.8 3.846-2.424 6.447-1.726 6.74-.661 13.005.294 18.133.404 2.308 2.167 4.14 4.37 4.616l-.184 4.03c-4.847 1.758-7.491 3.553-8.777 4.615-5.913 2.454-11.164 6.374-15.241 11.393h64.012z" clip-rule="evenodd"/>
</svg>
