<svg xmlns="http://www.w3.org/2000/svg" width="240" height="114" fill="none" viewBox="0 0 240 114">
    <path fill="#F8F5F6" d="M84.867 95.203c20.982 0 37.992-17.059 37.992-38.102C122.859 36.06 105.849 19 84.867 19c-20.983 0-37.993 17.059-37.993 38.101 0 21.043 17.01 38.102 37.993 38.102z"/>
    <path fill="#F1EDEE" fill-rule="evenodd" d="M47.606 51.257l159.461 62.378H19.203v-42.91c0-14.726 14.75-24.81 28.403-19.468z" clip-rule="evenodd"/>
    <path fill="#fff" d="M115.865 77.972c-1.332 2.003-2.897 3.873-4.629 5.61-7.059 7.079-16.415 10.953-26.371 10.953s-19.346-3.907-26.372-10.953c-7.059-7.08-10.921-16.463-10.921-26.447 0-1.937.133-3.84.433-5.71l-.633-.234c-.3 1.936-.466 3.94-.466 5.977 0 21.038 17.015 38.101 37.992 38.101 13.186 0 24.807-6.745 31.633-16.997l-.666-.3z"/>
    <path fill="#fff" d="M53.63 89.993c7.208 0 13.052-5.86 13.052-13.09 0-7.229-5.844-13.09-13.052-13.09-7.209 0-13.053 5.861-13.053 13.09 0 7.23 5.844 13.09 13.053 13.09zM105.041 46.817c3.917 0 7.092-3.185 7.092-7.113 0-3.928-3.175-7.113-7.092-7.113s-7.093 3.185-7.093 7.113c0 3.928 3.176 7.113 7.093 7.113z"/>
    <path fill="#fff" d="M119.758 103.517c-1.332-4.408-8.657-4.575-18.913-6.311-10.256-1.77-9.523-7.781-9.523-7.781v-11.02H78.336v11.02s.766 6.044-9.523 7.78c-10.256 1.77-17.581 1.904-18.913 6.312 0 0-27.504 2.037-30.9 10.118h131.658c-3.397-8.081-30.9-10.118-30.9-10.118z"/>
    <path fill="#7B997C" fill-rule="evenodd" d="M84.865 29.285c-.034 0-.034 0 0 0-.034 0-.034 0 0 0-8.458 8.281-8.79 24.577-8.79 24.577v26.347h17.547V53.862s-.333-16.296-8.757-24.577z" clip-rule="evenodd"/>
    <path fill="#BECBB2" fill-rule="evenodd" d="M84.826 29.285c-3.03 2.972-4.994 6.979-6.326 10.852h12.62c-1.266-3.907-3.263-7.88-6.294-10.852z" clip-rule="evenodd"/>
    <path fill="#F1EDEE" d="M84.964 61.71c3.641 0 6.593-2.96 6.593-6.612s-2.952-6.612-6.593-6.612-6.593 2.96-6.593 6.612c0 3.651 2.952 6.611 6.593 6.611z"/>
    <path fill="#F1EDEE" d="M93.62 54.096H76.04v2.07h17.58v-2.07z"/>
    <path fill="#fff" d="M84.963 59.338c2.336 0 4.229-1.898 4.229-4.24 0-2.343-1.893-4.242-4.229-4.242-2.335 0-4.229 1.9-4.229 4.241 0 2.343 1.894 4.241 4.23 4.241z"/>
    <path fill="#C4C7D3" d="M98.749 71.227l-5.128-2.305v11.32l5.128 2.305v-11.32zM70.945 71.226l5.095-2.304v11.32l-5.095 2.304v-11.32zM85.599 68.922h-1.532v13.624h1.532V68.922z"/>
    <path fill="#00B9FF" d="M115.764 112.633c-1.998-4.708-6.194-8.148-11.188-9.183l-9.124-1.87s-10.588-1.336-10.588-10.82v.034-.033c0 9.483-10.589 10.819-10.589 10.819l-9.123 1.87c-5.028 1.035-9.19 4.475-11.188 9.183l-.3 1.002h62.399l-.299-1.002z"/>
    <path fill="#2E2C2F" fill-rule="evenodd" d="M156.619 47.25l-20.444-2.337s-.333 2.304 1.531 2.771l-2.996-.367s-.799 2.905 2.63 3.873c0 0-.266 2.972 3.53 4.141 3.796 1.202 17.081 5.376 17.081 5.376l-1.332-13.457z" clip-rule="evenodd"/>
    <path fill="#C4C7D3" fill-rule="evenodd" d="M211.093 91.796l-55.64-30.688 4.462-11.287 57.538 17.832-6.36 24.143z" clip-rule="evenodd"/>
    <path fill="#2E2C2F" fill-rule="evenodd" d="M175.031 71.894l35.196-3.74-17.149 13.691-18.047-9.951z" clip-rule="evenodd"/>
    <path fill="#C4C7D3" fill-rule="evenodd" d="M148.859 40.137s-3.762 4.542 1.032 12.122l-2.197 10.419-3.929 7.446 2.197.701-1.831 8.682c-.4 1.837.399 3.707 1.931 4.709l6.227 4.107 14.517-3.205 10.989-34.295c-.034.033-9.59-8.248-28.936-10.686z" clip-rule="evenodd"/>
    <path fill="#2E2C2F" fill-rule="evenodd" d="M152.589 59.372l-3.196 12.422-3.463-.969-1.832 8.682c-.399 1.837.4 3.707 1.931 4.709l2.831 1.87 6.559-25.011-2.83-1.703z" clip-rule="evenodd"/>
    <path fill="#2E2C2F" fill-rule="evenodd" d="M177.762 50.856s-9.556-8.281-28.935-10.719c0 0-3.763 4.542 1.032 12.122 0 0 .799 1.102 1.498 1.937 0 0-3.296 7.547 4.629 15.56l-.5 1.203s-.932 7.413 7.592 8.715c1.865.268 4.262.234 5.694-.801l8.99-28.017z" clip-rule="evenodd"/>
    <path fill="#99C1E3" fill-rule="evenodd" d="M205.865 69.122l-34.163 16.263c-4.095-7.547-27.603 2.971-27.603 2.971l-1.132 5.41c-10.522 4.208-21.41 10.586-26.905 19.902h79.215l3.396-8.214L219.75 92.03c.367-.234-11.787-24.277-13.885-22.908z" clip-rule="evenodd"/>
    <path fill="#fff" stroke="#fff" stroke-width=".3" d="M142.703 94.008l-.151-.25c-.309.103-.62.24-.898.415l-.012.008-.01.009c-6.442 5.928-12.751 9.192-20.103 12.429l-.021.009-.017.014-.004.004c-.23.198-.471.404-.678.647l.174.235c7.997-3.475 14.775-6.923 21.72-13.52zm7.073-7.795l.316-.397-.481.16-.004.002c-.197.066-.406.136-.615.24l-.029.015-.02.026c-1.995 2.467-3.956 4.633-5.883 6.532l-.031.031-.01.043-.133.602-.108.489.359-.35c2.169-2.108 4.371-4.55 6.639-7.393zm12.752 5.883v.002c.034 3.707 3.217 6.78 9.251 9.187l.001.001c5.711 2.243 10.99 3.149 15.771 3.149 8.592 0 15.545-2.884 20.49-5.933h0c4.877-3.015 8.518-6.566 10.656-9.012l.076-.086-.064-.095c-.027-.04-.048-.083-.072-.135l-.02-.044c-.019-.041-.04-.09-.065-.14l-.099-.198-.148.166c-2.125 2.398-5.71 5.993-10.621 9.022h0c-7.596 4.69-19.933 8.949-35.694 2.726h0c-5.921-2.335-8.83-5.24-8.862-8.578h0c-.033-2.87 2.054-5.97 5.247-9.006l.198-.188-.265-.066h-.001c-.133-.033-.269-.068-.439-.102l-.077-.015-.057.055c-3.438 3.348-5.206 6.457-5.206 9.29zm26.202-2.898h0c3.746 1.409 7.193 1.98 10.342 1.98 5.627 0 10.181-1.814 13.427-3.694h.002c1.471-.872 2.743-1.778 3.848-2.685l.104-.086-.075-.113c-.027-.041-.048-.083-.074-.134l-.001-.003c-.024-.048-.053-.105-.091-.163l-.092-.138-.128.105c-1.094.897-2.386 1.827-3.843 2.691-4.933 2.889-12.944 5.546-23.213 1.692l-.053.14.053-.14c-1.906-.714-3.334-1.516-4.284-2.395-.947-.876-1.413-1.824-1.413-2.84 0-1.412.834-2.912 2.29-4.439l-.172-.24-.799.368-.03.014-.022.026c-1.244 1.483-1.9 2.918-1.9 4.237v.002c.035 2.374 2.157 4.31 6.124 5.815zm-29.602-5.785l.052-.236-.235.058-.072.019c-.101.026-.168.044-.257.044h-.122l-.025.118c-.867 4.082-1.434 8.496-1.967 13.071-.699 5.845-1.431 11.745-2.893 17.108l-.051.19h.644l.03-.111c1.468-5.422 2.202-11.343 2.901-17.118v-.001c.533-4.608 1.098-9.043 1.995-13.142zm-10.162 18.604l-.001-.001c-1.046-.572-2.455-.743-4.206-.537-1.753.206-3.864.791-6.326 1.752-4.925 1.921-11.277 5.35-19.022 10.277l-.435.277h1.225l.036-.023c6.041-3.822 12.044-7.24 17.098-9.389 2.527-1.075 4.812-1.83 6.742-2.161 1.934-.332 3.489-.234 4.577.368h0c1.385.758 1.985 2.379 1.721 4.928-.231 2.219-.858 4.237-1.815 6.057l-.115.22h.707l.042-.083c.973-1.952 1.577-3.973 1.812-6.128.303-2.733-.366-4.613-2.04-5.557zm16.946 4.291h-.001c-2.345.478-4.115 1.879-5.167 4.191-.47.977-.839 2.019-1.205 3.087l-.068.199H160.157l.033-.104c.332-1.031.696-1.993 1.125-2.921.981-2.098 2.575-3.399 4.722-3.824h0c2.455-.492 5.518.13 8.827 1.425 3.305 1.293 6.833 3.249 10.209 5.4l.037.024h1.218l-.427-.276c-4.367-2.825-8.224-4.852-11.555-6.059-3.33-1.207-6.149-1.6-8.434-1.142z" opacity=".1"/>
    <path fill="#2E2C2F" fill-rule="evenodd" d="M154.023 89.86l-10.488 1.135-.566 2.738 11.054-3.874z" clip-rule="evenodd"/>
    <path fill="#C4C7D3" fill-rule="evenodd" d="M213.126 66.952c-2.664 0-5.161.801-7.259 2.17l-12.82 6.111c1.332-.434 6.66-.367 12.154 8.315 6.426 10.118 1.831 16.563 1.831 16.563l12.687-8.081c.366-.2.732-.434 1.098-.701l.034-.034c3.396-2.438 5.627-6.411 5.627-10.92.033-7.412-5.96-13.423-13.352-13.423zM154.353 72.228l-1.365-1.77 2.464-9.383s4.429-.1 3.763 4.207c-.666 4.308-4.862 6.946-4.862 6.946z" clip-rule="evenodd"/>
    <path fill="#2E2C2F" d="M150.291 62.076l-3.33-1.135s.166-3.34 1.898-1.77c1.532 1.436 1.432 2.905 1.432 2.905z"/>
</svg>
