<svg xmlns="http://www.w3.org/2000/svg" width="240" height="114" fill="none" viewBox="0 0 240 114">
    <path fill="#F1EDEE" d="M220.428 113.888s-1.258-17.693-20.755-20.666c-1.443-.112-9.842-.112-11.248 0-19.497 2.974-21.347 20.666-21.347 20.666h53.35z"/>
    <path fill="#DFDFDF" d="M112.767 114c-27.415 0-49.724-22.413-49.724-49.956 0-27.543 22.31-49.956 49.724-49.956 27.415 0 49.724 22.413 49.724 49.956 0 27.543-22.309 49.956-49.724 49.956zm0-99.17c-27.008 0-48.984 22.08-48.984 49.214s21.976 49.213 48.984 49.213c27.008 0 48.984-22.08 48.984-49.213 0-27.134-21.976-49.213-48.984-49.213z"/>
    <path fill="#7B997C" d="M110.51 59.212c8.582 0 15.539-6.99 15.539-15.612S119.092 27.99 110.51 27.99c-8.581 0-15.538 6.99-15.538 15.611 0 8.622 6.957 15.612 15.538 15.612z"/>
    <path fill="#F1EDEE" d="M15.797 113.888h65.818s-2.11-24.42-31.115-24.42c-30.152 0-34.703 24.42-34.703 24.42z"/>
    <path fill="#C4C7D3" d="M70.035 113.889S62.71 85.305 91.864 69.656c29.56-15.834 47.726 19.812 47.726 19.812s6.03 11.039 9.434 24.421H70.035z"/>
    <path fill="#7B997C" d="M96.711 53.673c10.932 0 19.794-8.903 19.794-19.886 0-10.982-8.862-19.885-19.794-19.885-10.931 0-19.793 8.903-19.793 19.886 0 10.982 8.862 19.885 19.793 19.885z"/>
    <path fill="#2E2C2F" d="M105.851 51.331c6.886 0 12.468-5.608 12.468-12.526s-5.582-12.526-12.468-12.526-12.468 5.608-12.468 12.526 5.582 12.526 12.468 12.526z"/>
    <path fill="#7B997C" d="M109.438 56.61c8.112 0 14.688-6.607 14.688-14.757 0-8.15-6.576-14.756-14.688-14.756-8.112 0-14.688 6.606-14.688 14.756s6.576 14.756 14.688 14.756z"/>
    <path fill="#C4C7D3" d="M117.025 54.476l-13.009-2.688-3.905 19.078 13.01 2.687 3.904-19.077z"/>
    <path fill="#2E2C2F" d="M115.652 61.107l-7.992-1.263s1.739 2.973 7.141 5.352l.851-4.089z"/>
    <path fill="#578094" d="M119.425 68.69c1.813 2.9 3.219 6.245 2.035 8.512-2.479 4.795-11.173 4.2-15.465 1.672-4.291-2.527-6.104-5.278-8.546-7.025-1.295-.929-2.442-1.933-4.292-2.825-.407.224-.85.41-1.294.67-3.33 1.784-6.179 3.716-8.62 5.798 2.626 1.635 6.733 5.873 7.695 16.466 1.48 15.946 1.85 21.968 1.85 21.968h46.542s-4.107-26.13-13.393-40.962c-1.961-1.635-4.144-3.085-6.512-4.274z"/>
    <g fill="#fff" opacity=".2">
        <path d="M92.121 105.116c.037.223.037.484.074.707 1.887 2.453 3.737 5.315 5.365 8.103h.444c-.148-.298-.333-.558-.481-.855-1.887-3.16-3.7-5.836-5.402-7.955zM91.715 99.95c4.476 4.609 7.51 9.106 10.063 13.939h.407c-2.627-5.018-5.809-9.702-10.544-14.534.037.223.037.409.074.595zM90.863 80.436c3.181-.037 5.92-2.49 8.139-7.286-.111-.074-.185-.185-.296-.26-2.183 4.758-4.81 7.174-7.88 7.174h-.037c-1.295 0-2.627-.446-3.996-1.19l.444.67c1.184.594 2.368.892 3.552.892h.074zM120.609 92.33c-7.215-4.014-16.427-5.13-25.306-6.245-1.85-.222-3.663-.445-5.476-.706.037.112.074.26.111.372 1.739.223 3.515.446 5.328.669 17.462 2.156 35.517 4.349 38.144 27.431h.37c-1.184-10.184-5.513-17.246-13.171-21.521z" opacity=".2"/>
        <path d="M106.144 92.144c-2.701-.26-4.477.372-5.365 1.97-1.702 3.123.222 9.739 5.735 19.775h.444c-4.773-8.661-7.696-16.206-5.846-19.589.777-1.45 2.479-2.044 4.995-1.784 10.544 1.078 16.723 11.671 20.2 21.373h.407c-4.772-13.344-11.839-20.852-20.57-21.745zM109.102 82.22c3.108 1.45 6.845 2.304 10.84 3.16 4.81 1.04 9.694 2.118 13.541 4.423-.074-.186-.111-.372-.185-.558-3.81-2.156-8.583-3.197-13.282-4.237-3.958-.855-7.695-1.673-10.766-3.123-1.48-.706-2.553-1.71-3.218-3.01-.185-.112-.37-.223-.555-.372.629 1.673 1.849 2.9 3.625 3.717zM130.263 81.29c-.037-.111-.111-.26-.148-.371-3.885.371-8.879.446-12.32-.744-.185.075-.37.112-.592.186 2.257.93 5.18 1.227 8.065 1.227 1.739-.037 3.441-.112 4.995-.297z" opacity=".2"/>
    </g>
    <path fill="#99C1E3" d="M83.391 53.153H17.573v46.983h65.818V53.153z"/>
    <path fill="#DFDFDF" d="M69.629 100.136h13.8V75.381c-9.397 7.805-12.801 17.172-13.8 24.755z"/>
    <path fill="#7B997C" d="M23.197 100.136H75.77c-4.402-5.538-12.024-10.63-25.269-10.63-13.763-.038-22.198 5.091-27.304 10.63z"/>
    <path fill="#fff" d="M57.533 80.324c2.37 0 4.291-2.696 4.291-6.022 0-3.325-1.92-6.021-4.291-6.021-2.37 0-4.292 2.696-4.292 6.021 0 3.326 1.922 6.022 4.292 6.022zM57.75 60.066H45.245v3.643H57.75v-3.643z"/>
    <path fill="#2E2C2F" d="M56.606 74.414s4.958.743 4.958-4.758l.11-1.895 1.629-4.312c.999-2.64-1.295-5.315-4.033-4.758l-14.614 3.01-1.96 10.148 13.91 2.565z"/>
    <path fill="#588095" d="M41.882 90.211l11.69 8.921 3.96-9.106c-2.146-.335-4.477-.52-7.03-.52-3.145-.038-5.993.26-8.62.705z"/>
    <path fill="#588095" d="M55.347 66.98H43.804v23.826h11.543V66.98z"/>
    <path fill="#588095" d="M60.415 66.646l-1.036 13.901c-.185 2.677-2.442 4.795-5.106 4.795H51.13c-2.627 0-4.847-2.007-5.106-4.646l-1.406-14.013h15.798v-.037z"/>
    <path fill="#2E2C2F" d="M50.537 78.057c-1.184 0-2.146-.966-2.146-2.156v-9.255h-3.774l1.406 14.013c.26 2.639 2.479 4.646 5.106 4.646h3.144c2.701 0 4.921-2.082 5.106-4.795l.185-2.453h-9.027z" opacity=".5"/>
    <path fill="#2E2C2F" d="M44.616 74.414s4.958.743 4.958-4.758H60.82v-6.802H42.914l-.259 8.995 1.961 2.565z"/>
    <path fill="#fff" d="M43.693 80.324c2.37 0 4.292-2.696 4.292-6.022 0-3.325-1.922-6.021-4.292-6.021s-4.292 2.696-4.292 6.021c0 3.326 1.922 6.022 4.292 6.022z"/>
    <path fill="#fff" d="M45.246 70.4h-3.071V63.15c0-1.71 1.369-3.085 3.07-3.085V70.4z"/>
    <path fill="#fff" d="M45.248 64.118c0-1.375.888-2.565 2.146-2.936v-.335h-2.663v3.828h.517v-.557z"/>
    <path fill="#C4C7D3" d="M123.497 40.998s1.221 11.486-2.035 17.247c-3.219 5.762-7.88 5.539-11.913 3.011-4.033-2.528-6.475-7.322-6.586-10.556-.111-3.271 3.589-11.895 3.589-11.895l16.945 2.193z"/>
    <path fill="#7B997C" d="M105.442 31.372l-5.66 14.644 1.257 7.248c5.032-1.784 8.657-6.616 8.657-12.266 0-3.79-1.627-7.248-4.254-9.626z"/>
    <path fill="#7B997C" d="M125.126 41.519s-5.217 2.081-17.5-.744l-.888-4.757 17.389 2.75.999 2.75z"/>
    <path fill="#2E2C2F" d="M111.546 47.466l4.107-.409s-.074-1.338-1.776-1.227c-1.221.038-2.331 1.636-2.331 1.636zM123.09 48.21l-3.07-1.153s.48-1.115 1.627-.78c1.11.334 1.443 1.56 1.443 1.932zM118.168 50.7l.407 3.27-1.849.93 2.33-.372c.259-.037.444-.334.333-.594l-1.221-3.234zM114.062 56.796l5.031.483s-2.146.78-3.404.557c-1.294-.26-1.627-1.04-1.627-1.04zM114.581 50.848c.347 0 .629-.4.629-.892 0-.493-.282-.892-.629-.892-.347 0-.629.4-.629.892 0 .493.282.892.629.892zM121.543 50.414c.059-.49-.172-.92-.517-.962-.344-.043-.672.32-.732.809-.059.489.172.92.517.962.345.042.672-.32.732-.81z"/>
    <path fill="#C4C7D3" d="M103.813 54.23l1.554-8.214c-.444-.297-.888-.446-1.369-.446-1.702 0-2.886 1.97-2.701 4.423.148 1.97 1.184 3.68 2.516 4.238z"/>
    <path fill="#2E2C2F" d="M141.7 93.668l-66.743 13.827.999 6.17h73.143c-2.183-8.289-5.327-15.648-7.399-19.997z"/>
    <path fill="#C4C7D3" d="M73.292 106.826l32.261-2.304 10.804-3.457c1.849-.595 3.847 0 5.105 1.449l9.656 11.337H72.663l.629-7.025z"/>
    <path fill="#00B9FF" d="M92.195 111.212l.851 2.677h45.803l-.851-2.677H92.195z"/>
    <path fill="#00B9FF" d="M184.948 77.499h-53.941l-11.359 36.389h53.942l11.358-36.389z"/>
    <path fill="#DFDFDF" d="M196.454 25.387h-60.01v39.177h60.01V25.387z"/>
    <path fill="#BECBB2" d="M187.649 64.638c-3.071-6.542-11.469-11.262-21.348-11.262-9.878 0-18.276 4.72-21.347 11.262h42.695z"/>
    <path fill="#fff" d="M153.465 56.35c3.811 1.784 8.583 2.825 13.763 2.825 4.735 0 9.138-.892 12.764-2.38-3.811-2.155-8.547-3.419-13.689-3.419-4.773 0-9.212 1.115-12.838 2.974z"/>
    <path fill="#2E2C2F" d="M157.683 42.3s-3.404-6.543 1.553-10c4.958-3.456 9.842-2.564 11.95-.854 2.072 1.71 3.478 3.79 3.404 8.772-.037 4.943-13.689 11.782-16.907 2.081z"/>
    <path fill="#2E2C2F" d="M162.826 34.605l11.358 1.45s5.032 7.21 3.034 11.708c-1.998 4.498-5.549 5.353-10.877 5.353-5.365 0-10.433-1.784-9.36-8.14.925-5.836 5.845-10.37 5.845-10.37z"/>
    <path fill="#fff" d="M170.297 51.071h-5.216c-3.774 0-6.808-3.048-6.808-6.84V34.16h12.024V51.07z"/>
    <path fill="#fff" d="M170.296 44.976h-7.991v11.262h7.991V44.976z"/>
    <path fill="#2E2C2F" d="M157.68 34.902s.629 4.052 10.877 8.29c0 0 .259 3.307 3.774 5.017l-.925-15.314-13.171.67-.555 1.337z"/>
    <path fill="#99C1E3" d="M193.606 104.782c12.893 0 23.345-10.501 23.345-23.454 0-12.954-10.452-23.455-23.345-23.455-12.893 0-23.345 10.501-23.345 23.455 0 12.953 10.452 23.454 23.345 23.454z"/>
    <path fill="#DFDFDF" d="M155.243 98.947c2.162-1.974 2.601-5.028.98-6.82-1.622-1.793-4.689-1.647-6.851.327-2.163 1.974-2.602 5.028-.98 6.82 1.621 1.793 4.688 1.646 6.851-.328z"/>
    <path fill="#588095" d="M193.604 87.35c5.885 0 10.656-4.794 10.656-10.706s-4.771-10.705-10.656-10.705c-5.884 0-10.655 4.793-10.655 10.705s4.771 10.705 10.655 10.705z"/>
    <path fill="#578094" d="M200.674 80.956H186.578s-12.616 13.381-2.997 19.923c3.589 2.416 7.066 3.271 10.063 3.122 2.997.149 6.475-.669 10.063-3.122 9.583-6.542-3.033-19.923-3.033-19.923z"/>
    <path fill="#fff" d="M193.753 90.137c3.145 0 5.772-2.416 6.031-5.538l.888-10.37h-13.837l.888 10.37c.296 3.122 2.923 5.538 6.03 5.538z"/>
    <path fill="#fff" d="M197.49 85.937h-7.658v10.296h7.658V85.937z"/>
    <path fill="#588095" d="M185.874 82.183s5.069-.855 9.841-5.948c0 0 2.183 3.234 7.178 3.234l-.74-6.765h-16.279v9.479z"/>
    <path fill="#C4C7D3" d="M176.922 97.72c4.255 4.349 10.137 7.062 16.686 7.062 6.696 0 12.727-2.825 16.981-7.36-2.775-1.932-6.363-3.456-10.951-4.162-1.443-.112-9.841-.112-11.247 0-4.81.706-8.546 2.378-11.469 4.46z"/>
    <path fill="#fff" d="M181.988 94.932c2.812 1.747 7.03 2.862 11.728 2.862 4.847 0 9.139-1.19 11.95-3.01-1.775-.707-3.773-1.227-6.03-1.6-1.406-.296-9.841-.296-11.247 0-2.405.41-4.514 1.005-6.401 1.748z"/>
</svg>
