<svg xmlns="http://www.w3.org/2000/svg" width="240" height="114" fill="none" viewBox="0 0 240 114">
    <path fill="#FBF7F8" d="M84.685 89.935c23.212 0 42.029-18.917 42.029-42.252 0-23.336-18.817-42.253-42.03-42.253-23.21 0-42.028 18.917-42.028 42.253 0 23.335 18.817 42.252 42.029 42.252z"/>
    <path fill="#C4C8D4" d="M102.409 48.798l-.185-.148c.111-.15.111-.372-.037-.521l-.888-.744-1.48-1.004c-.037 0-.037-.037-.074-.037h-.037c-.074-.038-.148-.075-.222-.075h-.037l-1.665-.074h-.148l-2.997.67s-.185 3.793-.11 3.756c.295-.223 1.11-.484 1.85-.707l1.368.075c.148 0 1.295.111 1.96.037l.445.409c.111.111.296.111.444.037.111-.074.148-.26.037-.335l-.37-.483c0-.037.037-.075.037-.149v-.037l.111.074.555.447c.148.111.37.111.518 0 .111-.112.148-.298.037-.41l-.629-.632-.333-.297.444.223.814.52c.222.15.481.112.666-.074.111-.149.111-.372-.074-.52z"/>
    <path fill="#7B997C" d="M82.98 48.511c1.022-1.802.398-4.096-1.395-5.124-1.793-1.028-4.075-.4-5.097 1.402-1.022 1.803-.398 4.097 1.395 5.125 1.793 1.028 4.075.4 5.097-1.403zM79.28 35.807c1.123-1.98.437-4.502-1.533-5.632s-4.479-.44-5.602 1.541c-1.124 1.981-.437 4.503 1.533 5.632 1.97 1.13 4.478.44 5.602-1.541z"/>
    <path fill="#7B997C" d="M79.693 32.73l3.7 12.944-7.104 2.492-4.514-13.13 7.918-2.305z"/>
    <path fill="#7B997C" d="M79.32 50.732c-2.034-.483-3.255-2.529-2.774-4.538.444-1.934 2.294-3.161 4.218-2.863l.185.037c.037 0 .037 0 .074.037h.074s9.1 1.971 15.168 3.013l-1.035 4.76c-9.213.707-15.317-.334-15.317-.334-.185 0-.407-.037-.592-.112z"/>
    <path fill="#99C1E3" d="M71.126 61.573c3.197-1.467 4.606-5.262 3.146-8.476-1.46-3.214-5.234-4.63-8.431-3.163-3.197 1.467-4.606 5.262-3.146 8.476 1.46 3.215 5.234 4.63 8.431 3.163z"/>
    <path fill="#99C1E3" d="M71.886 50.323l18.683 14.692-6.03 8.406-19.535-12.312 6.882-10.786z"/>
    <path fill="#99C1E3" d="M90.66 73.278c2.254-1.737 2.68-4.983.951-7.248-1.728-2.266-4.956-2.694-7.21-.956-2.254 1.737-2.68 4.983-.95 7.249 1.728 2.265 4.956 2.693 7.21.956z"/>
    <path fill="#C4C8D4" d="M88.94 86.178l-2.59 14.729c-.259 1.413-1.554 2.38-2.96 2.269-1.48-.112-2.59-1.413-2.515-2.864l.665-14.952c.075-2.12 1.924-3.757 4.033-3.57 2.22.148 3.774 2.231 3.367 4.388z"/>
    <path fill="#99C1E3" d="M92.679 69.59L89.2 97.336l-8.213-.706 1.406-27.859 10.285.819z"/>
    <path fill="#99C1E3" d="M92.38 70.89c.958-2.688-.434-5.647-3.108-6.61-2.674-.962-5.618.437-6.575 3.126-.957 2.688.435 5.647 3.11 6.61 2.673.962 5.617-.438 6.574-3.126zM68.372 62.04c3.514 0 6.363-2.865 6.363-6.398 0-3.533-2.849-6.397-6.363-6.397-3.515 0-6.364 2.864-6.364 6.397 0 3.533 2.85 6.398 6.364 6.398z"/>
    <path fill="#99C1E3" d="M74.664 56.535l-5.661 23.172-10.1-2.12 3.182-22.837 12.579 1.785z"/>
    <path fill="#99C1E3" d="M67.574 82.274c2.019-2.008 2.036-5.281.038-7.311-1.998-2.03-5.254-2.047-7.273-.038-2.018 2.008-2.035 5.282-.038 7.311 1.998 2.03 5.254 2.047 7.273.038z"/>
    <path fill="#C4C8D4" d="M59.014 94.993l-7.77 12.758c-.74 1.19-2.293 1.636-3.588 1.004-1.332-.67-1.887-2.269-1.295-3.608l6.068-13.65c.85-1.971 3.181-2.79 5.068-1.86 1.998.967 2.7 3.46 1.517 5.356z"/>
    <path fill="#99C1E3" d="M68.562 80.896l-13.356 24.548-7.362-3.682 11.469-25.403 9.25 4.537z"/>
    <path fill="#99C1E3" d="M67.546 82.287c2.019-2.009 2.036-5.282.038-7.312-1.998-2.03-5.254-2.046-7.272-.038-2.02 2.009-2.036 5.282-.038 7.312 1.997 2.03 5.253 2.046 7.272.038z"/>
    <path fill="#C4C8D4" d="M80.098 24.176l-1.183 5.616c-.26 1.153-1.406 1.897-2.553 1.562-1-.26-1.665-1.227-1.517-2.268l.703-5.691c.185-1.414 1.59-2.343 2.96-1.934 1.146.372 1.85 1.525 1.59 2.715z"/>
    <path fill="#2E2C2F" d="M81.247 18.448s1.924-.93 1.332-4.166c0 0-1.295 1.525-2.072 1.86l.74 2.306z"/>
    <path fill="#C4C8D4" d="M75.401 18.113l5.735-2.008s.962 2.976 1.184 5.542c.222 2.566-.037 3.05-1.443 3.087-1.406.074-3.663-1.302-4.44-2.046-.74-.706-1.036-4.575-1.036-4.575z"/>
    <path fill="#2E2C2F" d="M81.025 12.571s2.553 3.794-1.554 5.468c0 0-.999.41-2.553.595 0 0 2.59 2.715-1.517 6.174 0 0-.629-1.674-1.184-2.826-.592-1.154-2.072-4.129.296-5.914.444-.335.888-.633 1.295-.893 1.036-.67 2.146-1.19 3.293-1.562.48-.223 1.295-.558 1.924-1.042z"/>
    <path fill="#C4C8D4" d="M78.25 21.944s-2.035-1.897-2.22-.52c-.148 1.152 1.37 1.86 1.37 1.86l.85-1.34z"/>
    <path fill="#99C1E3" d="M76.102 52.89v.148l-2.035 5.766c-1.257 2.9-4.81 3.905-7.806 2.938-3.145-1.041-4.92-4.389-4.033-7.588.444-1.525 1-3.273 1.776-5.058l.185-.298c1.591-2.529 4.662-3.645 7.474-2.715 2.885.93 4.735 3.757 4.44 6.807z"/>
    <path fill="#7B997C" d="M75.586 24.957l2.923 3.83s2.479 5.803 1.22 11.16c-1.257 5.355-3.588 13.017-3.588 13.017l-12.098-3.868 2.738-11.419c.592-2.492.925-5.095 2.368-7.253 1.48-2.157 3.588-4.389 6.437-5.467z"/>
    <path fill="#C4C8D4" d="M51.205 54.117l2.257-2.12s-1.776-3.385-1.813-3.273c-.074.186-.333.52-.703.818-.11 0-.185.038-.296.075h-.037c-.037 0-.037.037-.074.037l-1.702.93c-.148.074-1.258.595-1.776 1.004l-.518-.037c-.184 0-.332.111-.37.297-.037.15.075.298.222.335l2.035.223-.148.149-1.332.037-.777-.037c-.221 0-.407.112-.444.335-.036.186.075.334.26.372l.924.148.333.038h-.222l-.962-.038c-.258 0-.48.15-.554.41-.075.223.073.446.295.483l.223.037c-.038.186.11.372.295.41l1.147.185h.037l1.776.112H49.392c.074 0 .148-.037.222-.074h.037l1.48-.819c-.037 0 0 0 .074-.037-.037 0-.037 0 0 0z"/>
    <path fill="#7B997C" d="M64.74 39.609c.466-2.022-.787-4.04-2.798-4.507-2.01-.468-4.017.792-4.483 2.813-.465 2.022.788 4.04 2.799 4.507 2.01.468 4.018-.792 4.483-2.813zM76.896 33.145c.51-2.222-.866-4.44-3.076-4.953-2.21-.514-4.415.87-4.927 3.091-.51 2.222.866 4.44 3.076 4.953 2.21.514 4.416-.87 4.927-3.091z"/>
    <path fill="#7B997C" d="M74.665 35.93l-11.913 6.21-3.81-6.471 11.913-7.067 3.81 7.327z"/>
    <path fill="#7B997C" d="M58.346 36.227c1.443-1.525 3.81-1.562 5.29-.149 1.443 1.376 1.554 3.57.37 5.096l-.148.148-.073.075-.037.037-.037.037s-6.253 6.955-10.212 11.68l-3.588-3.311c4.032-8.369 7.991-13.13 7.991-13.13.185-.186.296-.334.444-.483z"/>
    <path fill="#2E2C2F" d="M46.1 109.387l10.286-.706c.333-.038.444-.484.148-.633l-3.848-2.194c-.333-.149-.703-.186-1.073-.186h-5.401s-.26 1.413-.111 3.719zM81.877 104.218l9.138-4.799c.185-.074.222-.26.148-.483-.074-.335-.37-.558-.703-.595l-4.032-.41-5.55 2.567c.037.446-.074 1.674.999 3.72z"/>
    <path fill="#F1EDEE" d="M127.272 81.195v32.767H75.957v-6.955l51.315-25.812z"/>
    <path fill="#fff" d="M156.757 75.838l-29.487 5.356v32.768h29.487V75.838z"/>
    <path fill="#BECBB2" d="M192.756 38.235v75.727h-35.998V75.838l35.998-37.603z"/>
    <g opacity=".2">
        <path fill="#fff" d="M166.196 69.739c.148-1.116-.074-2.12-.629-3.05l-.259.298c.481.855.666 1.748.518 2.752-.407 3.385-4.218 7.253-9.064 10.86v.484c5.882-4.389 9.064-8.183 9.434-11.344zM180.181 59.882c3.404-5.281 7.806-10.005 12.579-14.17v-.484c-4.884 4.24-9.434 9.075-12.912 14.468-8.398 13.018-15.613 20.643-23.086 25.999v.446c7.584-5.393 14.91-13.055 23.419-26.259zM186.836 78.107c.037 3.087 2.035 5.803 5.92 8.109v-.447c-3.663-2.231-5.513-4.798-5.55-7.699-.037-2.938 1.85-6.286 5.55-9.93v-.559c-3.589 3.497-5.957 7.067-5.92 10.526zM180.326 83.166c.888-7.328 1.739-14.246 3.699-20.271 1.517-4.65 4.699-8.48 8.732-11.642v-.483c-4.181 3.198-7.548 7.141-9.102 11.976-1.96 6.063-2.811 12.98-3.699 20.345-1.369 11.121-2.738 22.428-8.14 30.871h.407c.333-.558.666-1.078.999-1.673 4.588-8.257 5.883-18.858 7.104-29.123zM173.447 95.663c.296-3.087-.444-5.133-2.219-6.137-2.627-1.45-7.474-.595-14.466 2.53v.408c6.326-2.864 11.506-4.128 14.281-2.603 1.664.892 2.33 2.864 2.034 5.765-.814 8.22-6.622 14.133-13.725 18.336h.776c1.406-.855 2.664-1.748 3.848-2.64 5.698-4.426 8.879-9.708 9.471-15.659zM185.135 99.234c1.147-2.455 2.997-3.943 5.476-4.426.665-.149 1.405-.186 2.145-.186v-.372c-.777 0-1.517.074-2.219.223-2.627.52-4.551 2.083-5.735 4.65-1.665 3.57-2.59 7.885-3.589 12.459-.185.819-.37 1.637-.518 2.418h.37c.185-.781.333-1.562.518-2.343.962-4.575 1.887-8.89 3.552-12.423zM190.388 104.776c.703-.335 1.48-.521 2.368-.558v-.372c-.925 0-1.776.186-2.516.558-2.516 1.264-4.032 4.463-4.513 9.521h.37c.407-3.979 1.553-7.773 4.291-9.149z" opacity=".2"/>
    </g>
    <path fill="#F1EDEE" d="M240 0l-47.245 38.235v75.727H240V0z"/>
    <path fill="#99C1E3" d="M75.954 107.007l-53.793 4.203v2.752h53.793v-6.955z"/>
    <path fill="#F1EDEE" d="M0 113.962h22.161v-2.752L0 113.962z"/>
    <path fill="#00B9FF" d="M127.27 83.426c1.226 0 2.219-1 2.219-2.232 0-1.232-.993-2.231-2.219-2.231s-2.22.999-2.22 2.231c0 1.233.994 2.232 2.22 2.232zM156.755 78.33c1.226 0 2.22-.999 2.22-2.231 0-1.233-.994-2.232-2.22-2.232-1.226 0-2.22 1-2.22 2.232 0 1.232.994 2.231 2.22 2.231z"/>
    <path fill="#2E2C2F" d="M75.956 108.643c.899 0 1.628-.732 1.628-1.636 0-.904-.729-1.637-1.628-1.637-.899 0-1.628.733-1.628 1.637s.729 1.636 1.628 1.636zM22.16 112.772c.857 0 1.553-.699 1.553-1.562 0-.863-.696-1.562-1.554-1.562-.858 0-1.553.699-1.553 1.562 0 .863.695 1.562 1.553 1.562z"/>
    <path fill="#578094" d="M192.754 41.546c1.696 0 3.071-1.383 3.071-3.087 0-1.705-1.375-3.088-3.071-3.088-1.696 0-3.07 1.383-3.07 3.088 0 1.704 1.374 3.087 3.07 3.087z"/>
    <path fill="#00B9FF" fill-rule="evenodd" d="M187.984 29.123l4.773 3.905 4.773-3.905v-9.336h-9.546v9.336z" clip-rule="evenodd"/>
    <path fill="#00B9FF" d="M156.696 75.716l-29.5 5.085.125.733 29.5-5.085-.125-.733z"/>
</svg>
