<svg xmlns="http://www.w3.org/2000/svg" width="561" height="397" fill="none" viewBox="0 0 561 397">
    <path fill="#7B997C" d="M238.226 289.569c61.763 0 111.831-50.058 111.831-111.808 0-61.75-50.068-111.808-111.831-111.808-61.763 0-111.831 50.058-111.831 111.808 0 61.75 50.068 111.808 111.831 111.808z"/>
    <g fill="#BECBB2" opacity=".6">
        <path d="M194.983 93.27c24.245 0 48.285-11.116 64.161-20.468 2.052-1.189 3.98-2.42 5.867-3.568-.205-.04-.369-.082-.575-.123-1.764 1.108-3.61 2.256-5.538 3.363C230.223 89.332 208.275 92.9 194.901 92.9h-.492c-11.733 0-22.194.738-31.548 2.256-.164.164-.369.328-.533.492 9.477-1.6 20.143-2.379 32.122-2.379h.533zM195.926 149.214c.533-4.389-1.354-8.285-5.539-11.525-6.892-5.291-15.753-6.276-26.419-2.871-8.492 2.707-18.132 8.203-28.635 16.324-2.379 1.845-4.717 3.732-6.933 5.619-.041.205-.082.41-.123.656 2.339-2.01 4.8-4.019 7.303-5.947 10.461-8.08 20.06-13.535 28.511-16.242 10.502-3.363 19.281-2.42 26.05 2.789 4.103 3.158 5.908 6.931 5.415 11.156-2.174 18.457-46.849 42.451-66.581 52.254.041.123.041.287.082.41 7.097-3.486 17.394-8.818 27.773-15.053 24.737-14.929 37.906-27.562 39.096-37.57z" opacity=".6"/>
        <path d="M229.117 125.876c13.62-20.999 33.968-38.226 52.798-51.023-.164-.082-.287-.123-.451-.205-18.789 12.838-39.137 30.064-52.716 51.023-16.738 25.799-32.532 44.092-49.762 57.545-15.753 12.305-31.67 19.728-47.916 26.701.041.123.082.246.123.41 16.287-7.013 32.204-14.396 48.039-26.742 17.312-13.576 33.148-31.869 49.885-57.709zM260.256 143.636c-9.969 9.27-14.974 17.801-14.892 25.348.082 9.556 8.328 17.636 24.492 23.994 14.317 5.619 28.511 8.49 42.377 8.49 4.431 0 8.779-.287 13.128-.862 7.958-1.066 15.794-3.076 23.424-6.07.041-.164.041-.328.082-.451-7.671 2.994-15.548 5.045-23.547 6.111-17.887 2.379-36.47-.164-55.3-7.588-16-6.316-24.163-14.232-24.245-23.624-.083-9.311 8.122-25.225 47.669-48.44 10.502-6.152 21.045-11.566 29.578-15.668-.082-.123-.164-.205-.287-.328-8.533 4.102-19.035 9.475-29.496 15.627-13.948 8.162-25.065 16.037-32.983 23.461z" opacity=".6"/>
        <path d="M299.349 145.564c.041 5.988 5.456 11.033 16.04 15.011 9.354 3.528 18.625 5.291 27.691 5.291 2.134 0 4.226-.082 6.318-.287 0-.123-.041-.287-.041-.41-10.953 1.026-22.317-.656-33.804-4.963-10.42-3.896-15.712-8.818-15.753-14.601-.082-10.09 15.63-21.41 31.301-30.147l-.246-.369c-.041.041-.123.082-.164.082-20.922 11.608-31.424 21.862-31.342 30.393zM212.709 249.497c10.789-19.482 13.825-44.461 16.779-68.619 2.133-17.308 4.102-33.632 8.738-47.824 4.061-12.427 13.497-23.42 28.019-32.689 9.313-5.947 20.799-11.156 34.132-15.586-.164-.082-.287-.205-.451-.287-13.251 4.43-24.614 9.598-33.886 15.504-14.645 9.31-24.122 20.384-28.183 32.894-4.636 14.232-6.646 30.598-8.738 47.906-2.954 24.117-5.99 49.055-16.738 68.455-5.784 10.459-13.251 18.416-22.809 24.24-1.477.902-2.954 1.723-4.513 2.543.164.082.287.164.451.246 1.477-.738 2.913-1.559 4.267-2.42 9.599-5.824 17.107-13.822 22.932-24.363z" opacity=".6"/>
        <path d="M213.162 210.368c.738-7.177-1.026-11.976-5.169-14.232-6.523-3.568-19.199-1.025-37.578 7.588-9.887 4.635-21.414 10.992-34.501 19.031.041.123.123.246.164.369 13.087-8.039 24.614-14.396 34.501-19.031 18.297-8.572 30.809-11.115 37.209-7.588 4.02 2.215 5.702 6.85 4.964 13.822-1.395 13.863-8.861 26.127-22.153 36.463-7.097 5.537-15.876 10.5-26.214 14.889.123.082.205.205.328.287 10.256-4.389 19.035-9.352 26.132-14.848 13.374-10.418 20.881-22.763 22.317-36.75zM240.894 218.694c2.748-5.824 7.138-9.392 13.168-10.623 16.205-3.24 41.475 11.157 59.854 23.789 5.415 3.733 10.543 7.506 15.179 11.074.082-.123.164-.205.246-.328-4.636-3.568-9.764-7.341-15.179-11.074-18.419-12.715-43.854-27.152-60.182-23.871-6.112 1.231-10.666 4.881-13.456 10.828-3.938 8.408-6.153 18.58-8.532 29.326-3.159 14.397-6.359 29.039-13.867 39.867.165.041.288.041.452.082 7.466-10.869 10.666-25.511 13.825-39.867 2.338-10.664 4.553-20.835 8.492-29.203z" opacity=".6"/>
        <path d="M253.279 231.327c-7.671 3.774-11.322 15.135-10.871 33.797.246 10.09 1.682 19.687 2.461 24.24.123 0 .287 0 .411-.041-1.806-10.623-7.344-49.998 8.204-57.627 10.872-5.332 29.578 5.578 55.752 32.444.123-.082.205-.165.328-.247-26.378-27.07-45.249-37.98-56.285-32.566z" opacity=".6"/>
    </g>
    <path fill="#FBF7F8" d="M432.063 385.996v-52.951l21.128-21.123v26.906h10.297v47.168h-31.425z"/>
    <path fill="#C4C8D4" d="M367.739 388.334v-68.291h34.706v28.383h24.368v5.783h26.009v24.733h20.594v14.97H367.739v-5.578z"/>
    <path fill="#DFDFDF" d="M381.4 337.844h-3.61v3.609h3.61v-3.609zM385.014 345.062h-3.61v3.61h3.61v-3.61zM392.232 345.062h-3.61v3.61h3.61v-3.61zM415.901 357.696h-3.611v3.609h3.611v-3.609zM423.12 357.696h-3.61v3.609h3.61v-3.609zM0 396.865h539.545s-62.52 0-107.605-18.457c-39.875-16.324-82.581-14.355-97.062-14.478-24.738-.205-29.538 2.953-75.525-30.68-25.722-18.826-58.787-28.136-110.642-28.136-58.95 0-114.374 32.074-148.711 91.751z"/>
    <path fill="#00B9FF" d="M130.622 172.06h48.86l-4.267-28.424h-48.9l4.307 28.424z"/>
    <path fill="#BECBB2" d="M87.34 151.265h7.63l-1.15-7.629h-7.63l1.15 7.629z"/>
    <path fill="#fff" d="M160.492 158.32l-12.759-6.727 2.052 13.494 10.707-6.767z"/>
    <path fill="#588095" d="M149.74 96.469L137.022 89.7l2.052 13.494 10.666-6.726z"/>
    <path fill="#2E2C2F" d="M110.677 171.366c2.419-2.608 1.915-7.007-1.126-9.826-3.04-2.818-7.465-2.989-9.884-.381-2.418 2.608-1.914 7.007 1.126 9.826 3.041 2.818 7.466 2.989 9.884.381z"/>
    <path fill="#FBF7F8" d="M186.456 133.752H71.589l-2.543-16.817h114.826l2.584 16.817zm-114.128-.821h113.185l-2.298-15.175H70.031l2.297 15.175z"/>
    <path fill="#DFDFDF" d="M135.587 133.752H71.589l-2.543-16.817h75.115v.821h-74.13l2.297 15.175h63.259v.821z"/>
    <path fill="#FBF7F8" d="M186.459 133.752h-50.87v-.821h49.926l-2.297-15.175h-39.055v-.821h39.752l2.544 16.817z"/>
    <path fill="#BECBB2" d="M67.528 210.861H48.452l-1.394-9.229h19.076l1.394 9.229zm-18.378-.821h17.435l-1.149-7.588H48.001l1.149 7.588z"/>
    <path fill="#00B9FF" d="M106.42 174.111c3.528 0 6.933 2.543 8.082 6.029l4.636 14.273H99.815l.329-14.273c.082-3.486 2.707-6.029 6.276-6.029z"/>
    <path fill="#DFDFDF" d="M82.158 127.271c.955-1.03.76-2.764-.437-3.873-1.196-1.108-2.94-1.172-3.895-.143-.955 1.03-.76 2.764.437 3.873 1.196 1.109 2.94 1.173 3.895.143zM91.435 127.278c.955-1.03.76-2.764-.436-3.873-1.197-1.109-2.94-1.173-3.896-.143-.955 1.03-.76 2.764.437 3.873 1.196 1.108 2.94 1.172 3.895.143zM63.611 127.257c.955-1.03.76-2.764-.437-3.872-1.196-1.109-2.94-1.173-3.895-.144-.955 1.03-.76 2.764.437 3.873 1.196 1.109 2.94 1.173 3.895.143z"/>
    <path fill="#FBF7F8" d="M131.771 179.607h48.859l-.246-1.805h-48.901l.288 1.805zM132.714 186.046h44.306l-.287-1.805h-44.265l.246 1.805zM133.699 192.486h24.532l-.246-1.805h-24.532l.246 1.805z"/>
    <path fill="#FBF7F8" d="M191.87 203.027H87.136l-.041-.37-10.092-66.732h104.734l.041.369 10.092 66.733zm-104.037-.821h103.093l-9.887-65.46H77.947l9.886 65.46z"/>
    <path fill="#FBF7F8" d="M191.87 203.027H87.136l-.041-.37-10.092-66.732h104.734l.041.369 10.092 66.733zm-104.037-.821h103.093l-9.887-65.46H77.947l9.886 65.46z"/>
    <path fill="#FBF7F8" d="M191.871 203.027h-62.684v-.821h61.741l-9.887-65.46h-43.567v-.821h44.265l.041.328 10.091 66.774z"/>
    <path fill="#DFDFDF" d="M129.187 203.027h-42.05l-.081-.37-10.092-66.732h57.474v.821h-56.49l9.887 65.46h41.352v.821z"/>
    <path fill="#FBF7F8" d="M125.537 207.497H82.79L73.11 143.8l2.42-.369 9.354 61.605h40.654v2.461zM137.518 135.925h-3.077v.821h3.077v-.821z"/>
    <path fill="#FBF7F8" d="M121.926 211.107H79.138l-9.682-63.656 2.462-.369 9.312 61.564h40.696v2.461z"/>
    <path fill="#F9F5F6" d="M346.406 278.864h-75.32v1.435h75.32v-1.435z"/>
    <path fill="#F1EDEE" d="M223.047 308.19h104.611s-7.508-.328-22.153-3.241c-14.646-2.871-25.025-2.173-25.025-2.173s-2.707.246-6.194-1.395c-3.487-1.682-10.256-4.635-21.128-4.635-10.871 0-26.009 3.405-30.111 11.444z"/>
    <path fill="#2E2C2F" d="M210.08 275.706l-2.256-6.358 35.239-33.879 23.056 26.209-42.46 28.424-13.579-14.396z"/>
    <path fill="#2E2C2F" d="M227.666 285.548c3.789-5.993 2.003-13.923-3.991-17.712-5.994-3.788-13.925-2.002-17.715 3.99-3.79 5.993-2.003 13.923 3.991 17.712 5.994 3.788 13.925 2.002 17.715-3.99z"/>
    <path fill="#2E2C2F" d="M204.212 281.161l25.558-2.994-2.461 48.767-14.728 2.994-8.369-48.767z"/>
    <path fill="#2E2C2F" d="M227.065 337.967l.41-13.494-13.784-7.465 2.749 24.24-14.646 20.508c7.098-2.256 13.867-5.537 20.02-9.721l9.23-6.275-3.979-7.793z"/>
    <path fill="#00B9FF" d="M309.322 263.401h-106.99v8.736h106.99v-8.736z"/>
    <path fill="#FBF7F8" d="M202.329 267.79v.41c10.092-1.6 16.779.533 20.758 2.912.574.328 1.108.697 1.6 1.066h.697c-.615-.492-1.312-.943-2.092-1.394-6.481-3.897-14.235-4.061-20.963-2.994zM228.913 270.825c-1.887-2.174-2.707-4.963-3.076-7.424h-.411c.369 2.584 1.231 5.455 3.2 7.711.328.369.698.738 1.067 1.025h.656c-.533-.369-.984-.82-1.436-1.312zM261.156 265.083c4.226 0 7.426-.78 9.641-1.682h-1.231c-2.092.697-4.882 1.272-8.41 1.272-6.112 0-10.953 1.599-13.579 4.552-.779.862-1.394 1.846-1.764 2.912h.452c.369-.984.902-1.845 1.641-2.666 2.543-2.83 7.261-4.388 13.25-4.388zM235.598 265.329c.369.738 1.026 1.189 1.928 1.394.205.041.41.041.615.041 2.011 0 5.005-1.599 7.631-3.363h-.78c-2.707 1.764-5.661 3.281-7.425 2.912-.779-.164-1.354-.533-1.641-1.189-.246-.492-.328-1.108-.328-1.723h-.41c0 .697.123 1.354.41 1.928zM268.212 267.626c2.338-.123 4.677-.041 6.892 0 6.974.164 13.21.287 18.338-4.225h-.657c-4.963 4.061-10.953 3.938-17.681 3.815-2.215-.041-4.554-.082-6.933 0-4.8.205-8.082 1.353-9.846 3.404-.451.533-.738 1.066-.902 1.558h.451c.164-.41.41-.82.78-1.271 1.189-1.395 3.774-3.035 9.558-3.281zM297.054 268.405c2.257-2.42 8.41-1.436 12.266-.492v-.451c-3.979-.985-10.173-1.928-12.594.656-.902.943-1.149 2.297-.861 4.019h.41c-.287-1.599-.041-2.871.779-3.732z"/>
    <path fill="#CFD3DB" d="M524.368 243.057H297.711v8.737h226.657v-8.737z"/>
    <path fill="#F9F5F6" d="M416.844 256.88h-75.32v1.435h75.32v-1.435z"/>
    <path fill="#FBF7F8" d="M297.711 247.897c2.995.41 6.81 1.477 9.887 3.938h.656c-3.2-2.748-7.343-3.897-10.502-4.348v.41h-.041zM310.386 248.43c.492.164 1.025.246 1.518.246 1.066 0 2.174-.369 3.241-1.066 2.83-1.846 5.538-3.404 8.286-4.553h-1.025c-2.462 1.108-4.923 2.543-7.466 4.225-1.477.984-2.954 1.23-4.431.779-2.338-.738-4.184-3.117-5.333-4.963h-.492c1.107 1.928 3.117 4.553 5.702 5.332zM338.283 246.79c12.185-.41 21.128-1.6 27.486-3.733h-1.353c-6.236 1.887-14.769 2.953-26.174 3.323-9.927.328-14.85 3.117-17.23 5.455h.657c.246-.246.533-.451.861-.698 2.421-1.845 7.138-4.06 15.753-4.347zM362.277 247.61c6.318 0 12.635-2.584 16.492-4.553h-.944c-3.856 1.887-9.723 4.143-15.548 4.143h-.123c-8.779 0-14.646 1.518-17.763 4.594h.615c3.118-2.83 8.779-4.184 17.148-4.184h.123zM394.242 243.057h-.411c-.574 3.569-3.405 6.645-5.948 8.737h.656c.287-.246.616-.534.903-.821 2.789-2.584 4.43-5.291 4.8-7.916zM384.804 248.882c0-.698-.492-1.231-1.518-1.641-2.913-1.148-6.851-.123-11.774 3.035-.779.492-1.518 1.025-2.215 1.559h.697c3.815-2.789 9.231-5.783 13.128-4.225.82.328 1.231.738 1.231 1.272 0 .82-.985 1.845-2.503 2.953h.698c1.517-1.149 2.256-2.174 2.256-2.953zM402.485 247.159c7.795-.615 14.4-.287 18.789-.123 1.436.082 2.544.123 3.405.123h.287c7.056 0 10.215-1.928 11.487-4.102h-.492c-1.313 2.01-4.431 3.733-11.282 3.692-.861 0-1.969-.041-3.405-.123-4.389-.205-11.035-.492-18.83.123-5.825.451-8.82 2.953-10.338 5.045h.492c.124-.164.247-.287.37-.452 1.436-1.681 4.307-3.773 9.517-4.183zM519.938 248.512c.78.329 1.641.493 2.585.493.574 0 1.19-.041 1.805-.164v-.411c-1.395.288-2.872.288-4.225-.246-1.888-.738-3.282-2.461-4.226-5.086h-.451c.984 2.789 2.502 4.635 4.512 5.414zM503.034 243.057h-.41c.779 1.764 2.503 3.897 6.195 5.004 3.323.985 5.62 2.42 7.179 3.774h.656c-1.559-1.436-4.02-3.076-7.712-4.143-3.405-1.025-5.087-2.871-5.908-4.635zM481.417 246.38c-.041-.985 2.092-2.338 5.62-3.323h-1.354c-2.749.944-4.759 2.133-4.677 3.364.082 1.476 3.118 2.379 8.861 2.584 6.605.246 10.667 1.517 13.128 2.83h.903c-2.421-1.436-6.687-2.953-14.031-3.241-1.969-.082-8.368-.451-8.45-2.214zM477.559 243.057h-.533c-1.272 1.6-2.831 4.184-2.626 6.891.041.656.205 1.271.493 1.887h.451c-.287-.616-.451-1.231-.533-1.928-.247-2.666 1.476-5.291 2.748-6.85zM458.935 246.79c-10.912 2.543-16.615.492-16.697.492-.082-.041-7.671-2.379-13.989 4.553h.575c6.071-6.399 13.209-4.225 13.291-4.184.041.041 5.867 2.133 16.902-.451 4.513-1.066 8.205-.082 10.954 2.953.492.574.943 1.149 1.312 1.723h.452c-1.847-2.994-5.621-6.768-12.8-5.086z"/>
    <path fill="#DFDFDF" d="M481.58 117.058H297.711v119.314H481.58V117.058z"/>
    <path fill="#FBF7F8" d="M561.001 184.815H264.645s29.209-2.46 64.694-13.412c28.635-8.818 42.255-9.761 49.188-8.941 6.892.82 26.829 1.23 41.475-8.121 14.645-9.352 28.06-17.473 60.141-17.473 32.08 0 62.151 15.463 80.858 47.947z"/>
    <path fill="#F9F5F6" d="M149.492 257.577h-75.32v1.435h75.32v-1.435z"/>
    <path fill="#F1EDEE" d="M137.964 251.589H26.133s8-.615 23.67-5.906c15.63-5.291 26.748-3.979 26.748-3.979s2.913.492 6.646-2.584c3.733-3.035 10.994-8.449 22.563-8.449 11.569 0 27.814 6.234 32.204 20.918z"/>
    <path fill="#588095" d="M182.597 298.264H142.64v23.502h-31.219v23.543h-31.26v23.543H48.94v8.695h39.917v-23.543h31.26v-23.502h31.26v-23.543h31.219v-8.695z"/>
    <path fill="#7B997C" d="M310.182 192.649h-2.83v19.811h2.83v-19.811z"/>
    <path fill="#89B1D0" d="M306.271 195.006l-2.787.497 3.482 19.502 2.786-.497-3.481-19.502z"/>
    <path fill="#F9F5F6" d="M315.757 197.571h-2.831v19.811h2.831v-19.811z"/>
    <path fill="#F9F5F6" d="M318.466 205.528h-16.943v28.998h16.943v-28.998z"/>
    <path fill="#588095" d="M520.549 116.894h-32.244v39.908h8.697v-31.213h23.547v-8.695z"/>
    <path fill="#DFDFDF" d="M497.005 70.998H391.328v33.058h105.677V70.998z"/>
    <path fill="#DFDFDF" d="M423.449 97.863l-19.117-19.154v38.349l19.117-19.195z"/>
    <path fill="#FBF7F8" d="M468.698 79.283h-64.366v1.763h64.366v-1.763zM462.627 85.722h-58.295v1.764h58.295v-1.764zM436.659 92.161h-32.327v1.764h32.327v-1.764z"/>
    <path fill="#BECBB2" d="M419.42 12.264h-8.041v5.865h8.041v-5.865z"/>
    <path fill="#7B997C" d="M390.625 23.912h-30.727v3.774h30.727v-3.774z"/>
    <path fill="#00B9FF" d="M411.384 31.787h-20.758V52.54h20.758V31.787z"/>
    <path fill="#fff" d="M401.006 45.076c2.9 0 5.251-2.35 5.251-5.25s-2.351-5.25-5.251-5.25c-2.9 0-5.251 2.35-5.251 5.25s2.351 5.25 5.251 5.25zM403.67 46.06h-5.333v2.174h5.333V46.06zM402.726 48.931h-3.487v.862h3.487v-.862z"/>
    <path fill="#BECBB2" d="M305.628 52.664h-35.855V88.51h35.855V52.664z"/>
    <g fill="#FBF7F8" opacity=".5">
        <path d="M275.642 52.665h-.575c-.574.574-1.148 1.189-1.64 1.804-1.231 1.436-2.462 2.748-3.611 3.979v.574c1.272-1.313 2.585-2.748 3.939-4.307.574-.697 1.189-1.353 1.887-2.05zM278.961 65.543c0 2.502 2.831 4.634 8.41 6.275 5.21 1.518 9.969 2.133 14.317 2.133 1.354 0 2.667-.082 3.939-.164v-.41c-5.252.45-11.364.04-18.133-1.97-5.374-1.599-8.082-3.567-8.123-5.864-.041-4.348 9.19-9.229 17.764-12.88h-1.108c-8.41 3.651-17.107 8.45-17.066 12.88z" opacity=".5"/>
        <path d="M297.22 59.595c0 1.641 1.805 2.913 5.538 3.979.985.287 1.928.492 2.831.656v-.41c-.903-.164-1.805-.41-2.708-.656-3.446-.985-5.21-2.174-5.251-3.569 0-1.763 2.708-3.978 7.959-6.398v-.451c-5.538 2.584-8.369 4.88-8.369 6.85zM276.787 56.52c.615-1.395 1.559-2.666 2.789-3.855h-.615c-1.149 1.148-1.969 2.378-2.543 3.69-1.559 3.651-2.257 7.794-2.995 12.224-.78 4.88-1.6 9.802-3.692 14.109v.943c2.379-4.47 3.241-9.761 4.102-14.97.739-4.43 1.395-8.573 2.954-12.141zM277.691 78.299c.82-1.313 2.133-2.174 3.856-2.543 6.112-1.272 16.573 3.568 24.081 7.751v-.492c-1.108-.615-2.298-1.271-3.528-1.886-9.313-4.758-16.246-6.727-20.635-5.784-1.846.37-3.241 1.313-4.103 2.707-1.353 2.174-2.092 4.758-2.912 7.506-.288.985-.575 1.969-.903 2.953h.451l.862-2.83c.779-2.707 1.518-5.29 2.831-7.382z" opacity=".5"/>
        <path d="M280.847 81.703c-2.093 1.312-2.79 4.02-2.913 6.808h.41c.082-2.666.78-5.25 2.667-6.48 3.241-2.01 9.189.164 17.763 6.48h.697c-8.902-6.685-15.178-8.982-18.624-6.808z" opacity=".5"/>
    </g>
    <path fill="#F1EDEE" d="M321.652 91.033h63.177V45.916h-63.177v45.117z"/>
    <path fill="#F1EDEE" d="M352.719 84.86l19.117-21.204v40.4l-19.117-19.195z"/>
    <path fill="#99C1E3" d="M378.115 52.581h-49.72v5.947h49.72v-5.947zM361.789 58.529h-33.394v5.947h33.394v-5.947z"/>
    <path fill="#fff" d="M361.788 69.193h-33.393v1.764h33.393v-1.764zM371.839 75.632h-43.444v1.764h43.444v-1.764z"/>
    <path fill="url(#paint0_linear)" d="M467.712 305.934h-93.986c-3.61 0-6.564-2.953-6.564-6.562v-25.389c0-3.158-2.584-5.742-5.743-5.742h-45.783v-.82h45.783c3.61 0 6.564 2.953 6.564 6.562v25.389c0 3.158 2.584 5.742 5.743 5.742h93.986c1.517 0 2.994-.615 4.061-1.682 1.067-1.066 1.682-2.543 1.682-4.06l-.082-25.512c0-1.764.656-3.404 1.928-4.635 1.231-1.23 2.872-1.927 4.636-1.927h49.72c3.159 0 5.744-2.584 5.744-5.743l.082-30.023c0-1.517-.574-2.994-1.682-4.06-1.067-1.108-2.544-1.682-4.061-1.682h-25.804c-3.528 0-6.4-2.871-6.4-6.398 0-3.528 2.872-6.399 6.4-6.399h6.112c2.215 0 4.061-1.805 4.103-4.019 0-1.108-.411-2.174-1.19-2.954-.78-.779-1.805-1.23-2.913-1.23h-19.814v-.82h19.814c1.313 0 2.585.533 3.528 1.476.944.944 1.436 2.215 1.395 3.528-.041 2.666-2.256 4.839-4.923 4.839h-6.112c-3.077 0-5.58 2.502-5.58 5.579 0 3.076 2.503 5.578 5.58 5.578h25.804c1.764 0 3.405.697 4.635 1.927 1.231 1.231 1.928 2.912 1.928 4.635l-.082 30.023c0 3.61-2.953 6.563-6.564 6.563h-49.679c-1.518 0-2.995.615-4.062 1.681-1.066 1.108-1.682 2.543-1.682 4.061l.082 25.512c0 1.763-.656 3.404-1.928 4.634-1.271 1.272-2.912 1.928-4.676 1.928z"/>
    <path fill="#7B997C" d="M317.729 272.178c2.425 0 4.39-1.964 4.39-4.388s-1.965-4.389-4.39-4.389c-2.424 0-4.389 1.965-4.389 4.389 0 2.424 1.965 4.388 4.389 4.388z"/>
    <path fill="#CFD3DB" d="M492.698 208.769c2.424 0 4.39-1.965 4.39-4.389 0-2.424-1.966-4.389-4.39-4.389-2.424 0-4.389 1.965-4.389 4.389 0 2.424 1.965 4.389 4.389 4.389z"/>
    <path fill="#588095" d="M297.709 135.884c10.491 0 18.994-8.502 18.994-18.99 0-10.488-8.503-18.99-18.994-18.99-10.49 0-18.994 8.502-18.994 18.99 0 10.488 8.504 18.99 18.994 18.99z"/>
    <path fill="#00B9FF" d="M298.161 117.427v18.457c10.091-.246 18.255-8.367 18.542-18.457h-18.542z"/>
    <path fill="#FBF7F8" d="M328.889 138.304h-10.174v10.172h10.174v-10.172zM336.23 138.304l-7.179 5.086 7.179 5.086v-10.172z"/>
    <path fill="#DFDFDF" d="M479.402 205.528h2.215s-.984-16.98 18.133-22.23c19.158-5.25 20.676-7.055 19.527-10.336-1.148-3.24-8.41-8.367-26.542.697 0 0 4.882-3.732.164-5.865-4.39-2.01-13.497 4.676-13.497 12.92v24.814z"/>
    <path fill="#CFD3DB" d="M480.469 176.694v-17.718s3.487-.041 2.092 7.752c-1.436 7.751-2.092 9.966-2.092 9.966z"/>
    <path fill="#fff" d="M210.817 69.644h-.164c-.615 0-1.108-.492-1.108-1.107 0-.41.246-.78.575-.985-1.641-3.527-5.21-5.988-9.395-5.988-4.143 0-7.753 2.46-9.394 5.988.328.205.574.533.574.985 0 .615-.492 1.107-1.108 1.107h-.164c-.164.738-.246 1.518-.246 2.297 0 .78.082 1.558.246 2.297h.164c.616 0 1.108.492 1.108 1.107 0 .41-.246.78-.574.984 1.641 3.528 5.21 5.989 9.394 5.989 4.144 0 7.754-2.461 9.395-5.989-.329-.205-.575-.533-.575-.984 0-.615.493-1.107 1.108-1.107h.164c.164-.739.246-1.518.246-2.297 0-.78-.082-1.559-.246-2.297zm-16.697 3.404c-.615 0-1.107-.492-1.107-1.107s.492-1.108 1.107-1.108c.616 0 1.108.493 1.108 1.108 0 .615-.492 1.107-1.108 1.107zm3.323 3.405c-.615 0-1.107-.493-1.107-1.108 0-.615.492-1.107 1.107-1.107.616 0 1.108.492 1.108 1.107s-.492 1.108-1.108 1.108zm0-6.768c-.615 0-1.107-.492-1.107-1.107 0-.616.492-1.108 1.107-1.108.616 0 1.108.492 1.108 1.108 0 .615-.492 1.107-1.108 1.107zm3.282 3.363c-.615 0-1.107-.492-1.107-1.107s.492-1.108 1.107-1.108c.616 0 1.108.493 1.108 1.108 0 .615-.492 1.107-1.108 1.107zm3.323 3.405c-.615 0-1.107-.493-1.107-1.108 0-.615.492-1.107 1.107-1.107.616 0 1.108.492 1.108 1.107s-.492 1.108-1.108 1.108zm0-6.768c-.615 0-1.107-.492-1.107-1.107 0-.616.492-1.108 1.107-1.108.616 0 1.108.492 1.108 1.108 0 .615-.492 1.107-1.108 1.107zm3.282 3.363c-.615 0-1.108-.492-1.108-1.107s.493-1.108 1.108-1.108c.615 0 1.108.493 1.108 1.108 0 .615-.493 1.107-1.108 1.107z"/>
    <path fill="#99C1E3" d="M200.725 70.834c-.616 0-1.108.492-1.108 1.107s.492 1.107 1.108 1.107c.615 0 1.107-.492 1.107-1.107s-.492-1.108-1.107-1.108zM207.327 73.048c.612 0 1.108-.496 1.108-1.107 0-.612-.496-1.108-1.108-1.108-.612 0-1.108.496-1.108 1.108 0 .611.496 1.107 1.108 1.107zM204.046 67.43c-.616 0-1.108.491-1.108 1.107 0 .615.492 1.107 1.108 1.107.615 0 1.107-.492 1.107-1.107 0-.616-.492-1.108-1.107-1.108zM209.547 68.537c0 .615.493 1.107 1.108 1.107h.164c-.164-.738-.41-1.395-.697-2.05-.37.163-.575.532-.575.943zM204.046 74.238c-.616 0-1.108.492-1.108 1.107s.492 1.108 1.108 1.108c.615 0 1.107-.493 1.107-1.108 0-.615-.492-1.107-1.107-1.107zM209.547 75.345c0 .41.247.78.575.984.287-.656.533-1.353.697-2.05h-.164c-.615-.041-1.108.45-1.108 1.066zM194.12 70.834c-.615 0-1.108.492-1.108 1.107s.493 1.107 1.108 1.107c.615 0 1.108-.492 1.108-1.107s-.493-1.108-1.108-1.108zM191.944 68.537c0-.41-.246-.78-.574-.985-.287.656-.534 1.354-.698 2.051h.164c.616.082 1.108-.451 1.108-1.066zM197.444 67.43c-.616 0-1.108.491-1.108 1.107 0 .615.492 1.107 1.108 1.107.615 0 1.107-.492 1.107-1.107 0-.616-.492-1.108-1.107-1.108zM191.944 75.345c0-.615-.492-1.107-1.108-1.107h-.164c.164.738.411 1.394.698 2.05.328-.163.574-.533.574-.943zM197.444 74.238c-.616 0-1.108.492-1.108 1.107s.492 1.108 1.108 1.108c.615 0 1.107-.493 1.107-1.108 0-.615-.492-1.107-1.107-1.107z"/>
    <path fill="#fff" d="M200.724 87.732c-8.697 0-15.794-7.096-15.794-15.79 0-8.696 7.097-15.792 15.794-15.792s15.795 7.096 15.795 15.791-7.098 15.791-15.795 15.791zm0-29.08c-7.343 0-13.332 5.988-13.332 13.33s5.989 13.33 13.332 13.33c7.344 0 13.333-5.988 13.333-13.33s-5.989-13.33-13.333-13.33z"/>
    <path fill="#fff" d="M200.725 108.568c-20.184 0-36.635-16.406-36.635-36.627 0-20.22 16.41-36.627 36.635-36.627 20.224 0 36.634 16.406 36.634 36.627 0 20.22-16.451 36.627-36.634 36.627zm0-72.433c-19.733 0-35.814 16.037-35.814 35.806 0 19.728 16.04 35.806 35.814 35.806 19.773 0 35.813-16.037 35.813-35.806 0-19.728-16.081-35.806-35.813-35.806z"/>
    <path fill="#CFD3DB" d="M198.591 35.724h4.676l2.216 25.143h-9.108l2.216-25.143z"/>
    <path fill="#99C1E3" d="M201.34 0h-.82v33.1h.82V0z"/>
    <path fill="#CFD3DB" d="M409.991 273.163l-13.415 13.412c-5.456 5.455-1.6 14.765 6.112 14.765h35.486l-28.183-28.177z"/>
    <path fill="#BECBB2" d="M392.101 279.807l-19.363 19.359c-.821.821-.246 2.215.902 2.215h39.998l-21.537-21.574z"/>
    <path fill="#00B9FF" d="M460.977 293.916c-2.502 0-4.841-.451-6.646-1.189-2.584-1.067-5.456-1.067-7.999 0-1.805.738-4.144 1.189-6.646 1.189-3.569 0-6.728-.902-8.697-2.256l9.722 9.721h25.928c1.682 0 3.035-1.353 3.035-3.035v-6.686c-1.969 1.395-5.128 2.256-8.697 2.256z"/>
    <path fill="#fff" d="M415.031 281.202l-5.046-5.004-5.005 5.004h10.051z"/>
    <path fill="#99C1E3" d="M462.174 184.282s-8.574-16.078-10.543-18.867c-1.969-2.748-3.076-10.13 2.339-12.755 2.707-1.313 5.374-.206 7.384 1.23 1.846 1.313 3.282 3.076 4.348 5.045 2.339 4.43 8.246 16.365 11.446 30.064v3.692h-9.189l-5.785-8.409z"/>
    <path fill="#F9F5F6" d="M480.474 235.06h-16.778l-8.164-29.531h24.942v29.531z"/>
    <path fill="#588095" d="M462.175 184.282s-8.574-16.078-10.543-18.867c-1.969-2.748-3.077-10.13 2.338-12.755 2.708-1.313 5.374-.206 7.385 1.23 1.846 1.313 3.282 3.076 4.348 5.045 2.339 4.43 8.246 16.365 11.446 30.064v3.692h-9.19l-5.784-8.409z" opacity=".5"/>
    <path fill="#99C1E3" d="M464.846 205.529h-5.497s-2.544-3.692-9.682-8.122c-7.138-4.429-3.159-7.587-3.159-7.587s2.257-2.42 6.687.902c4.431 3.363 8.41 7.793 11.651 14.807zM478.422 205.364h-10.379s-2.585-7.711-9.846-15.791c-7.22-8.08-19.076-14.888-13.989-19.974 5.99-5.988 17.353 6.234 20.143 8.982 2.789 2.748 6.4 8.86 6.4 8.86s-1.272-11.977.287-19.934c1.518-7.957 3.241-10.131 7.425-9.474v47.495"/>
    <path fill="#588095" d="M450.527 174.111s11.322 8.818 17.886 19.728c0 0-9.558-12.099-17.886-19.728zM449.418 192.691s7.671 4.593 10.543 9.515c-.041 0-3.979-4.265-10.543-9.515zM477.15 165.046s-3.241 14.068-2.298 28.793c0 0 .534-15.914 2.298-28.793z" opacity=".5"/>
    <path fill="#588095" d="M341.194 204.503c-.246 1.149-.369 2.338-.369 3.569 0 9.228 7.507 16.734 16.738 16.734 9.23 0 16.737-7.506 16.737-16.734 0-1.231-.123-2.42-.369-3.569h-32.737z"/>
    <path fill="#00B9FF" d="M408.516 188.466l-18.337-2.625-18.338 2.625c-8.533 15.996-10.297 44.543-10.297 44.543H418.813s-1.764-28.547-10.297-44.543z"/>
    <path fill="#588095" d="M425.951 201.222l7.508 17.637c2.748 6.726-2.216 14.15-9.477 14.15H364.58c4.184-3.281 8.943-5.742 14.03-7.26 2.338-.697 34.993-8.08 34.993-8.08l-4.266-14.437 16.614-2.01z"/>
    <path fill="#00B9FF" d="M421.846 190.927c-1.23-3.076-3.364-5.783-6.153-7.547-.205-.123-.369-.246-.575-.369-4.102-2.338-11.937-4.429-21.947-4.429h-6.728c-10.01 0-17.887 2.132-21.948 4.429-.205.123-.41.246-.574.369-2.831 1.764-4.923 4.471-6.154 7.547l-4.102 10.295 36.142 4.348 36.142-4.348-4.103-10.295z"/>
    <path fill="#588095" d="M364.825 182.847c6.359 2.543 15.343 4.142 25.353 4.142 9.763 0 18.584-1.517 24.901-3.937-4.102-2.338-11.938-5.25-21.948-5.25h-6.686c-9.764-.041-17.477 2.748-21.62 5.045z"/>
    <path fill="#00B9FF" d="M413.721 194.7l12.225 6.522 1.6 3.773-19.938 9.475-10.338-19.77h16.451zM365.89 194.7l-12.225 6.522-1.641 3.773 19.938 9.475L382.3 194.7h-16.41z"/>
    <path fill="#588095" d="M357.561 170.46v38.35l-16.697-2.01 3.651-38.636 13.046 2.296z"/>
    <path fill="#588095" d="M352.229 174.931c-.082 0-7.713-6.768-7.713-6.768l1.723-14.355c.082-.943.37-1.846.944-2.625.656-.943 1.436-1.969 3.405-2.502.615-.164 1.231.287 1.231.943l.41 9.844.41-9.885c.041-.738.615-1.312 1.354-1.312.738 0 1.313.574 1.354 1.312l.574 14.479.82-4.02c.206-.943 1.026-1.599 1.97-1.599.328 0 .615.287.615.615v5.496c0 1.477-.328 2.912-.985 4.225l-.82 1.681-5.292 4.471zM410.937 210.163l-3.076-7.957 1.189-4.224c0-.041-.697 4.675 1.887 12.181zM364.825 210.163l3.077-7.957-1.19-4.224c0-.041.697 4.675-1.887 12.181z"/>
    <path fill="#2E2C2F" d="M345.954 166.441l9.805-4.84.123 2.379c.041.041-3.857 1.066-9.928 2.461zM425.501 205.939l-13.497 6.439.943 3.076 12.554-9.515zM357.559 207.62v4.061l6.974-.738-6.974-3.323z"/>
    <path fill="#2E2C2F" d="M358.913 209.671l-1.354 2.01h6.851l.123-.738-5.62-1.272zM405.646 155.777s1.19-21.82-15.097-22.395h-.738c-16.287.575-15.097 22.395-15.097 22.395-13.128 4.758-3.282 19.154-3.282 19.154h37.988s9.395-14.437-3.774-19.154z"/>
    <path fill="#588095" d="M396.746 163.037h-13.251l-.533 18.251h14.317l-.533-18.251z"/>
    <path fill="#2E2C2F" d="M383.122 174.931l9.394-3.855 3.364-5.127h-12.758v8.982z"/>
    <path fill="#588095" d="M389.686 171.527c5.128 0 9.354-4.225 9.354-9.352v-10.746c0-5.127-4.226-9.351-9.354-9.351-5.128 0-9.353 4.224-9.353 9.351v10.746c0 5.168 4.225 9.352 9.353 9.352z"/>
    <path fill="#2E2C2F" d="M398.016 139.863c-1.19-1.149-2.584-2.133-4.102-2.83-4.923 1.148-5.087 1.968-10.051 2.789-.862 1.189-6.277 2.707-6.646 4.265-.903 3.774-.738 7.752-.944 11.649.862.082 1.764.123 2.667.123 6.564 0 12.594-2.215 17.435-5.947 1.846 2.584 4.061 4.839 6.646 6.685-.041-.369-.041-.779.082-1.189.041-.288.123-.534.164-.821-.123-1.763-.328-3.527-.656-5.25-.698-3.568-2.01-6.931-4.595-9.474zM385.792 158.484c.431 0 .78-.514.78-1.149 0-.634-.349-1.148-.78-1.148-.43 0-.779.514-.779 1.148 0 .635.349 1.149.779 1.149z"/>
    <path fill="#2E2C2F" d="M393.624 158.484c.431 0 .78-.514.78-1.149 0-.634-.349-1.148-.78-1.148-.43 0-.779.514-.779 1.148 0 .635.349 1.149.779 1.149zM388.867 158.976l-1.108 3.856 2.503-.534-1.682-.041.287-3.281zM388.539 165.497l1.969-.082-.861.821s3.077 0 3.692-2.42l-4.8 1.681zM396.129 154.71l-3.898-.861s.739-2.379 3.898.861z"/>
    <path fill="#C4C8D4" d="M249.138 160.781l-7.918-43.723h-26.665s.943 3.158 4.307 6.481l3.323 25.798c.123.903.903 1.6 1.805 1.6h6.359l1.723 7.957 17.066 1.887z"/>
    <path fill="#2E2C2F" d="M223.21 133.382h-3.405s.164-2.091 3.405 0zM222.269 145.236l2.338-1.231s-.82 2.338-2.338 1.231zM230.351 150.937l-.329-1.559-6.03 1.559"/>
    <path fill="#C4C8D4" d="M220.505 133.628l-1.682 8.819h6.605l-4.923-8.819z"/>
    <path fill="#2E2C2F" d="M241.22 117.058h-26.666s.944 3.158 4.308 6.481v.041c1.189 1.148 2.666 2.337 4.471 3.445 0 0 .862 6.849 8.492 6.849v5.579s3.939 3.609 14.071 3.609l-4.676-26.004zM221.776 136.376c.294 0 .533-.422.533-.943 0-.521-.239-.943-.533-.943-.295 0-.533.422-.533.943 0 .521.238.943.533.943zM218.823 142.447l2.421-.739.041.739h-2.462z"/>
    <path fill="#C4C8D4" d="M229.161 135.351v-2.83c0-1.107.902-1.969 1.969-1.969 2.174 0 3.897 1.928 3.61 4.102-.369 2.789-1.641 5.988-5.62 5.988v-5.291h.041zM196.586 174.316l-8-8.121h-1.6c-1.395 0-2.749-.287-3.979-.862l-5.908-2.707c-.615-.287-.943-.943-.779-1.599.123-.575.615-.985 1.189-1.067.78-.082 2.052 0 3.652.78l-3.364-2.748-5.949-2.748c-.82-.37-1.477-1.108-1.723-1.969-.205-.656.369-1.313 1.067-1.149l7.015 1.764 5.374-.779c1.026-.082 2.092.164 2.995.656 4.676 2.666 8.984 5.947 12.799 9.762l6.441 6.398-9.23 4.389z"/>
    <path fill="#E8DEDB" d="M218.988 204.503c5.528 0 10.01-4.481 10.01-10.008 0-5.527-4.482-10.007-10.01-10.007s-10.01 4.48-10.01 10.007c0 5.527 4.482 10.008 10.01 10.008z"/>
    <path fill="#E8DEDB" d="M198.76 162.954l26.789 24.076-15.63 11.731-19.363-29.285s3.241-5.824 8.204-6.522z"/>
    <path fill="#99C1E3" d="M273.675 244.616l-48.901-17.76 5.539 36.586h34.296c6.276 0 11.076-5.578 10.132-11.771l-1.066-7.055z"/>
    <path fill="#C4C8D4" d="M196.179 272.383l1.682 25.881h-33.352l21.619-10.541-4.43-21.861 14.481 6.521z"/>
    <path fill="#99C1E3" d="M225.389 263.442h24.368c9.64 0 17.517-7.875 17.517-17.513 0-9.639-7.877-17.514-17.517-17.514h-24.368c-9.641 0-17.517 7.875-17.517 17.514 0 9.638 7.876 17.513 17.517 17.513z"/>
    <path fill="#99C1E3" d="M225.465 263.401c9.652 0 17.477-7.823 17.477-17.472 0-9.65-7.825-17.473-17.477-17.473-9.651 0-17.476 7.823-17.476 17.473 0 9.649 7.825 17.472 17.476 17.472zM181.697 236.29c7.091 0 12.84-5.748 12.84-12.838 0-7.09-5.749-12.838-12.84-12.838-7.092 0-12.841 5.748-12.841 12.838 0 7.09 5.749 12.838 12.841 12.838z"/>
    <path fill="#99C1E3" d="M181.697 215.495l4.677-3.978 42.911 17.185c1.353.533 1.969 2.092 1.353 3.404l-13.702 29.162-42.993-27.562 7.754-18.211z"/>
    <path fill="#99C1E3" d="M194.582 223.452l-25.558 2.256 10.338 50.818h18.584l-3.364-53.074z"/>
    <path fill="#588095" d="M185.022 276.239l-8.246-46.511c-.205-1.19.246-2.379 1.189-3.159.944-.779 2.216-.943 3.323-.492l50.706 20.713c3.118 1.272 6.564.779 9.189-1.271 2.667-2.051 3.939-5.291 3.487-8.614l.41-.041c.493 3.487-.861 6.85-3.61 8.983-2.748 2.173-6.358 2.666-9.599 1.312l-50.706-20.713c-.984-.41-2.092-.246-2.912.411-.821.656-1.231 1.722-1.026 2.748l8.205 46.552-.41.082z" opacity=".5"/>
    <path fill="#588095" d="M196.137 247.897l-14.441-9.228 14.851 15.791-.41-6.563z"/>
    <path fill="#FBF7F8" d="M223.13 215.823h46.193l-7.22-47.66c-1.067-7.095-7.179-12.345-14.358-12.345h-10.379c-12.308 0-21.702 10.951-19.856 23.091l5.62 36.914z"/>
    <path fill="#FBF7F8" d="M273.672 244.616c-19.404 0-41.885-14.971-41.885-14.971l-7.015-2.789-2.831-18.785 47.382 7.752 4.349 28.793zM251.6 156.843l-2.338-8.982s-10.502 1.722-23.014 11.361l25.352-2.379z"/>
    <path fill="#FBF7F8" d="M231.786 187.318c8.065 0 14.604-6.538 14.604-14.602s-6.539-14.601-14.604-14.601c-8.066 0-14.605 6.537-14.605 14.601s6.539 14.602 14.605 14.602z"/>
    <path fill="#FBF7F8" d="M241.836 168.696l-18.953-7.546-37.66 30.925 9.354 17.678 44.428-24.322 2.831-16.735z"/>
    <path fill="#C4C8D4" d="M170.209 212.583l-3.652 8.572c-.328.739-1.435.903-1.764.205-.41-.779-.574-2.174.329-4.47l-.739.656-3.733 8.736c-.246.533-.861.902-1.477.779-.574-.123-.902-.615-.779-1.189l1.641-7.588-1.477 2.051-1.272 3.65c-.246.698-1.231.944-1.682.41l-.656-.738c-.493-.574-.78-1.312-.78-2.092 0-.451-.082-.902-.246-1.312l-.779-1.723c-.534-1.189-.534-2.625 0-3.896l2.379-5.742s4.143-5.989 9.723-6.686c5.456-.656 4.964 10.377 4.964 10.377z"/>
    <path fill="#FBF7F8" d="M158.352 208.071c0 3.815 3.077 6.891 6.892 6.891 3.815 0 5.579-3.076 5.579-6.891 0-3.814-1.805-6.89-5.579-6.89s-6.892 3.117-6.892 6.89zM190.557 210.573c5.528 0 10.01-4.48 10.01-10.008 0-5.527-4.482-10.007-10.01-10.007s-10.01 4.48-10.01 10.007c0 5.528 4.482 10.008 10.01 10.008z"/>
    <path fill="#FBF7F8" d="M161.43 206.431l.657-4.471 24.45-10.5 6.153 19.154-26.091 4.225-5.169-8.408z"/>
    <path fill="#E8DEDB" d="M226.496 159.017l16.615-3.158c0-.041-12.102-1.764-16.615 3.158zM219.724 196.013l16.984-9.311c0 .041-21.209 15.463-16.984 9.311z"/>
    <path fill="#DFDFDF" d="M478.297 120.339v112.752H300.992V120.339h177.305zm3.282-3.281H297.71v119.314h183.869V117.058z"/>
    <defs>
        <linearGradient id="paint0_linear" x1="473.91" x2="394.9" y1="182.307" y2="319.185" gradientUnits="userSpaceOnUse">
            <stop stop-color="#CFD3DB"/>
            <stop offset=".785" stop-color="#7B997C"/>
        </linearGradient>
    </defs>
</svg>
