<svg xmlns="http://www.w3.org/2000/svg" width="475" height="226" fill="none" viewBox="0 0 475 226">
    <path fill="#F8F5F6" d="M148.13 184.465c46.142 0 83.548-37.513 83.548-83.788 0-46.274-37.406-83.787-83.548-83.787s-83.548 37.513-83.548 83.787c0 46.275 37.406 83.788 83.548 83.788z"/>
    <path fill="#F1EDEE" fill-rule="evenodd" d="M66.194 87.826L416.86 225H3.734v-94.362c0-32.384 32.438-54.561 62.46-42.812z" clip-rule="evenodd"/>
    <path fill="#fff" d="M216.302 146.573c-2.929 4.406-6.371 8.518-10.178 12.337-15.524 15.568-36.099 24.086-57.993 24.086-21.894 0-42.543-8.592-57.993-24.086-15.523-15.568-24.017-36.203-24.017-58.159 0-4.26.293-8.445.952-12.558l-1.392-.514c-.659 4.26-1.025 8.666-1.025 13.145 0 46.263 37.417 83.788 83.548 83.788 28.997 0 54.552-14.834 69.562-37.378l-1.464-.661z"/>
    <path fill="#fff" d="M79.446 173.009c15.852 0 28.703-12.888 28.703-28.786 0-15.898-12.85-28.786-28.703-28.786s-28.704 12.888-28.704 28.786c0 15.898 12.851 28.786 28.704 28.786zM192.503 78.06c8.614 0 15.596-7.003 15.596-15.642 0-8.638-6.982-15.64-15.596-15.64s-15.597 7.002-15.597 15.64c0 8.639 6.983 15.642 15.597 15.642z"/>
    <path fill="#fff" d="M224.871 202.75c-2.929-9.694-19.038-10.061-41.591-13.879-22.553-3.892-20.942-17.11-20.942-17.11v-24.233h-28.557v24.233s1.684 13.291-20.942 17.11c-22.553 3.892-38.662 4.185-41.59 13.879 0 0-60.483 4.479-67.952 22.25h289.525c-7.469-17.771-67.951-22.25-67.951-22.25z"/>
    <path fill="#7B997C" fill-rule="evenodd" d="M148.132 39.507c-.073 0-.073 0 0 0-.073 0-.073 0 0 0-18.599 18.212-19.331 54.047-19.331 54.047v57.939h38.588V93.554s-.732-35.835-19.257-54.047z" clip-rule="evenodd"/>
    <path fill="#BECBB2" fill-rule="evenodd" d="M148.057 39.507c-6.663 6.536-10.984 15.348-13.912 23.866h27.751c-2.782-8.592-7.176-17.33-13.839-23.866z" clip-rule="evenodd"/>
    <path fill="#F1EDEE" d="M148.35 110.811c8.007 0 14.498-6.51 14.498-14.54s-6.491-14.54-14.498-14.54-14.498 6.51-14.498 14.54 6.491 14.54 14.498 14.54z"/>
    <path fill="#F1EDEE" d="M167.389 94.068h-38.662v4.553h38.662v-4.553z"/>
    <path fill="#fff" d="M148.35 105.597c5.136 0 9.3-4.175 9.3-9.326 0-5.15-4.164-9.326-9.3-9.326-5.136 0-9.299 4.176-9.299 9.326 0 5.151 4.163 9.326 9.299 9.326z"/>
    <path fill="#C4C7D3" d="M178.667 131.74l-11.276-5.067v24.894l11.276 5.066V131.74zM117.523 131.74l11.204-5.067v24.894l-11.204 5.066V131.74zM149.743 126.673h-3.368v29.96h3.368v-29.96z"/>
    <path fill="#00B9FF" d="M216.085 222.797c-4.393-10.354-13.62-17.918-24.603-20.194l-20.063-4.113s-23.285-2.937-23.285-23.792v.073-.073c0 20.855-23.285 23.792-23.285 23.792l-20.063 4.113c-11.057 2.276-20.21 9.84-24.604 20.194L79.523 225h137.221l-.659-2.203z"/>
    <path fill="#2E2C2F" fill-rule="evenodd" d="M305.929 79.014l-44.959-5.14s-.733 5.067 3.368 6.095l-6.59-.808s-1.757 6.389 5.785 8.519c0 0-.586 6.535 7.761 9.105 8.348 2.644 37.564 11.823 37.564 11.823l-2.929-29.594z" clip-rule="evenodd"/>
    <path fill="#C4C7D3" fill-rule="evenodd" d="M425.721 176.974l-122.356-67.485 9.812-24.82 126.53 39.213-13.986 53.092z" clip-rule="evenodd"/>
    <path fill="#2E2C2F" fill-rule="evenodd" d="M346.42 133.208l77.397-8.224-37.71 30.107-39.687-21.883z" clip-rule="evenodd"/>
    <path fill="#C4C7D3" fill-rule="evenodd" d="M288.867 63.373s-8.274 9.987 2.27 26.656l-4.833 22.912-8.64 16.375 4.833 1.542-4.027 19.093c-.879 4.039.878 8.151 4.246 10.354l13.693 9.032 31.926-7.049 24.163-75.416c-.073.073-21.088-18.138-63.631-23.499z" clip-rule="evenodd"/>
    <path fill="#2E2C2F" fill-rule="evenodd" d="M297.068 105.671l-7.029 27.317-7.615-2.13-4.027 19.093c-.879 4.039.878 8.151 4.246 10.354l6.224 4.112 14.425-55.001-6.224-3.745z" clip-rule="evenodd"/>
    <path fill="#2E2C2F" fill-rule="evenodd" d="M352.425 86.945s-21.015-18.211-63.631-23.572c0 0-8.274 9.987 2.27 26.656 0 0 1.757 2.424 3.295 4.26 0 0-7.249 16.595 10.178 34.219l-1.098 2.644s-2.051 16.302 16.695 19.166c4.1.588 9.372.514 12.521-1.762l19.77-61.61z" clip-rule="evenodd"/>
    <path fill="#99C1E3" fill-rule="evenodd" d="M414.226 127.113l-75.128 35.762c-9.006-16.596-60.702 6.536-60.702 6.536l-2.489 11.896c-23.139 9.253-47.083 23.279-59.165 43.767h174.199l7.468-18.065 46.351-29.52c.805-.514-25.921-53.386-30.534-50.376z" clip-rule="evenodd"/>
    <path fill="#fff" stroke="#fff" stroke-width=".3" d="M275.205 181.709l-.15-.251c-.668.224-1.339.522-1.936.897l-.012.007-.01.01c-14.188 13.054-28.083 20.243-44.259 27.363l-.021.009-.017.015-.004.003c-.509.439-1.029.885-1.476 1.408l.174.235c17.579-7.639 32.462-15.211 47.711-29.696zm15.538-17.125l.316-.396-.481.16-.004.002c-.437.146-.885.296-1.334.521l-.029.014-.02.025c-4.39 5.431-8.707 10.199-12.949 14.381l-.032.031-.009.043-.293 1.322-.109.489.36-.349c4.764-4.631 9.601-9.997 14.584-16.243zm28.363 13.051v.002c.074 8.031 6.97 14.748 20.231 20.038h0c12.539 4.927 24.126 6.914 34.617 6.914 18.853 0 34.11-6.327 44.964-13.021h.001c10.706-6.618 18.698-14.413 23.392-19.782l.075-.086-.063-.096c-.067-.1-.118-.202-.172-.319l-.047-.103c-.04-.09-.085-.189-.138-.296l-.099-.199-.147.166c-4.681 5.281-12.578 13.201-23.398 19.873l.078.127-.078-.127c-16.74 10.336-43.929 19.72-78.655 6.009h0c-13.027-5.137-19.53-11.565-19.602-19.028v0c-.073-6.394 4.57-13.258 11.596-19.937l.197-.188-.264-.066h-.001c-.293-.074-.588-.148-.958-.222l-.078-.016-.056.056c-7.551 7.352-11.395 14.145-11.395 20.301zm57.504-6.542h0c8.218 3.091 15.777 4.342 22.679 4.342 12.335 0 22.319-3.976 29.438-8.097l.001-.001c3.229-1.913 6.017-3.901 8.439-5.888l.105-.086-.075-.113c-.067-.101-.118-.203-.174-.314l-.001-.003c-.054-.109-.112-.226-.191-.344l-.092-.138-.128.105c-2.411 1.978-5.26 4.03-8.475 5.935-10.882 6.372-28.554 12.232-51.201 3.734l-.043.117.043-.117c-4.201-1.575-7.366-3.348-9.479-5.303-2.11-1.952-3.164-4.081-3.164-6.379 0-3.174 1.871-6.516 5.084-9.884l-.171-.24-1.758.808-.03.014-.022.026c-2.721 3.245-4.135 6.362-4.135 9.202v.002c.074 5.097 4.632 9.316 13.35 12.622zm-65.335-12.592l.051-.236-.234.059-.152.039c-.224.058-.396.103-.617.103h-.122l-.025.119c-1.906 8.966-3.151 18.666-4.323 28.726-1.537 12.853-3.147 25.839-6.366 37.649l-.051.19h1.043l.03-.111c3.225-11.908 4.837-24.917 6.375-37.619v-.001c1.171-10.134 2.415-19.894 4.391-28.918zm-22.26 41.107l-.002-.001 4.249 12.028.149.017v-.001c.662-5.975-.806-10.018-4.396-12.043zm37.387 9.457h0c-5.1 1.038-8.947 4.08-11.236 9.115-1.029 2.138-1.837 4.422-2.642 6.771l-.068.199H313.581l.033-.104c.731-2.272 1.534-4.396 2.483-6.445 2.178-4.66 5.728-7.563 10.51-8.508h.001c5.449-1.093 12.225.29 19.512 3.141 7.282 2.85 15.053 7.159 22.481 11.892l.037.024h2.016l-.426-.276c-9.598-6.209-18.066-10.658-25.375-13.307-7.308-2.648-13.47-3.501-18.451-2.502z" opacity=".1"/>
    <path fill="#2E2C2F" fill-rule="evenodd" d="M300.216 172.715l-23.065 2.497-1.245 6.022 24.31-8.519z" clip-rule="evenodd"/>
    <path fill="#C4C7D3" fill-rule="evenodd" d="M430.189 122.34c-5.858 0-11.35 1.762-15.963 4.773l-28.191 13.439c2.929-.955 14.645-.808 26.727 18.284 14.132 22.251 4.027 36.423 4.027 36.423l27.898-17.77c.806-.441 1.611-.955 2.416-1.543l.074-.073c7.468-5.361 12.374-14.099 12.374-24.013.074-16.302-13.107-29.52-29.362-29.52zM300.949 133.942l-3.002-3.891 5.419-20.635s9.739-.221 8.274 9.252c-1.464 9.473-10.691 15.274-10.691 15.274z" clip-rule="evenodd"/>
    <path fill="#2E2C2F" d="M292.016 111.619l-7.323-2.497s.366-7.343 4.174-3.892c3.368 3.158 3.149 6.389 3.149 6.389z"/>
</svg>
