<svg xmlns="http://www.w3.org/2000/svg" width="240" height="114" fill="none" viewBox="0 0 240 114">
    <path fill="#F8F5F6" d="M75.01 0C54 2.53 29.183 4.464.04 5.803v.446C30.849 4.799 56.886 2.753 78.67 0h-3.66zM71.68 10.75c34.027 0 68.016-5.654 91.613-10.75h-2.108c-23.486 4.947-56.44 10.303-89.505 10.303h-.628c-28.812 0-52.408 1.227-71.012 3.682v.447c18.567-2.455 42.163-3.683 71.012-3.683h.628zM72.938 35.409c.074-1.86-2.367-3.46-7.508-4.798-18.308-4.835-44.456-.744-65.39 4.314v.447c20.897-5.059 47.045-9.187 65.316-4.315 6.029 1.6 7.25 3.236 7.212 4.352-.11 3.05-8.913 8.443-50.263 17.072-7.619 1.6-15.312 3.05-22.265 4.314v.447c6.99-1.265 14.646-2.752 22.302-4.352C55.74 45.935 72.753 40.058 72.938 35.41z"/>
    <path fill="#F8F5F6" d="M197.208 0h-2.071c-28.626 6.286-58.991 14.73-78.63 25.143C74.38 47.46 41.537 54.973.04 61.482v.446c41.572-6.471 74.414-14.022 116.615-36.375C136.738 14.915 167.99 6.323 197.208 0zM138.364 44.893c0 4.5 10.615 8.146 32.399 11.084 20.194 2.715 38.835 3.794 55.7 3.794 4.623 0 9.135-.074 13.5-.223V59.1c-20.194.707-43.421-.111-69.163-3.57-21.266-2.864-32.066-6.472-32.066-10.638 0-4.165 10.948-11.307 63.134-21.795 13.463-2.715 26.999-5.096 38.095-6.918v-.484c-37.059 6.1-101.636 18.337-101.599 29.197z"/>
    <path fill="#F8F5F6" d="M209.742 34.293c0 1.413 1.628 2.678 4.993 3.794 3.514 1.19 8.951 2.269 16.2 3.199 3.07.409 6.065.743 9.024 1.004v-.447c-2.922-.297-5.917-.632-8.987-1.004-17.235-2.231-20.86-4.798-20.86-6.546 0-3.533 13.13-7.55 29.847-11.195v-.41c-20.083 4.315-30.254 8.22-30.217 11.605zM128.451 28.49c-6.177 6.473-8.802 13.911-11.613 21.796-3.884 10.935-7.915 22.205-22.08 31.02-16.052 9.968-43.31 15.287-83.328 16.291v.447c40.092-1.005 67.387-6.36 83.475-16.329 14.277-8.852 18.345-20.233 22.266-31.205 2.773-7.848 5.436-15.213 11.502-21.647 9.616-10.117 42.755-18.188 95.866-23.358 5.215-.52 10.356-.967 15.386-1.376v-.484c-5.067.41-10.208.856-15.423 1.376-53.925 5.245-86.25 13.13-96.051 23.47z"/>
    <path fill="#F8F5F6" d="M95.573 63.825c.407-1.413.259-2.64-.518-3.682-5.067-6.844-36.985-4.24-95.015 7.736v.484c46.306-9.559 88.95-15.77 94.756-7.96.666.893.814 1.972.444 3.236-4.216 14.208-49.08 21.982-86.028 25.999-3.07.335-6.14.632-9.172.93v.446c3.07-.297 6.14-.632 9.21-.967 53.85-5.802 82.883-14.654 86.323-26.222zM132.003 67.322c-5.215 3.83-8.174 8.442-11.281 13.352-7.434 11.68-15.127 23.73-55.478 25.627v.446c40.499-1.897 48.266-14.022 55.737-25.775 3.107-4.873 6.028-9.448 11.206-13.241 12.871-9.448 51.595-3.794 81.775 2.603 9.061 1.934 17.901 4.017 25.963 6.063v-.447c-8.062-2.045-16.865-4.128-25.889-6.025-44.013-9.41-71.604-10.265-82.033-2.603z"/>
    <path fill="#F8F5F6" d="M136.289 80.153c-5.141 8.332 1.997 20.68 2.071 20.792l.296-.26c-.074-.112-7.064-12.2-2.108-20.271 10.319-16.738 60.064-2.38 103.337 14.17v-.483c-32.289-12.385-57.587-19.49-75.265-21.2-14.942-1.414-24.485 1.004-28.331 7.252zM97.606 4.5H29.442v38.46h68.164V4.5z"/>
    <path fill="#588095" d="M61.582 28.007c5.944 0 10.763-4.845 10.763-10.823 0-5.978-4.819-10.824-10.763-10.824s-10.763 4.846-10.763 10.824 4.819 10.823 10.763 10.823z"/>
    <path fill="#7B997C" fill-rule="evenodd" d="M40.497 42.625c.555-2.157 1.516-4.092 2.848-5.617 2.774-3.124 8.544-7.327 19.27-7.066 10.688-.26 16.495 3.942 19.268 7.066 1.332 1.488 2.294 3.46 2.848 5.617l.592 2.306H39.905l.592-2.306z" clip-rule="evenodd"/>
    <path fill="#99C1E3" fill-rule="evenodd" d="M51.78 31.504c2.884-1.004 6.435-1.674 10.873-1.562 4.55-.112 8.174.595 11.096 1.636 0 .075.037.186 0 .26-.111 2.195-5.215 3.683-11.318 3.31-5.289-.26-9.616-1.822-10.652-3.644z" clip-rule="evenodd"/>
    <path fill="#99C1E3" fill-rule="evenodd" d="M59.288 33.959h6.88c.332 0 .628-.298.628-.633V22.354h-8.137v10.972c0 .335.26.633.629.633z" clip-rule="evenodd"/>
    <path fill="#2E2C2F" fill-rule="evenodd" d="M60.433 29.16s1.738 3.2 6.324 1.935V29.16h-6.324z" clip-rule="evenodd"/>
    <path fill="#99C1E3" d="M63.431 30.536l.592-.074c2.33-.26 4.106-2.269 4.069-4.65l-.185-10.302-11.503 1.302 2.071 10.116c.444 2.306 2.626 3.869 4.956 3.608z"/>
    <path fill="#588095" d="M55.55 14.134l12.058-1.34 1.22 8.184-.776-.224c-.518-.148-.925-.595-.962-1.153l-.37-3.347s-1.812-.149-4.179.074c-2.367.298-4.068.819-4.068.819l.37 3.347c.073.558-.222 1.079-.703 1.34l-.74.408-1.85-8.108z"/>
    <path fill="#99C1E3" d="M58.102 21.87l-.74.41c-.554.26-.813.93-.591 1.487l.591 1.525c.185.446.518.818.962 1.042l.666.334-.888-4.798z"/>
    <path fill="#588095" d="M57.919 20.643l.333 2.306c.074.41-.111.819-.444 1.08l-.74-3.311.851-.075z"/>
    <path fill="#99C1E3" d="M159.959 7.44H94.421v48.872h65.538V7.44z"/>
    <path fill="#2E2C2F" d="M123.38 16.7l12.02 1.525s5.326 7.774 3.181 12.572c-2.145 4.798-5.88 5.765-11.539 5.765s-11.059-1.934-9.912-8.74c1.035-6.25 6.25-11.122 6.25-11.122z"/>
    <path fill="#588095" d="M146.272 43.07c-2.737-5.801-10.171-10.004-18.973-10.004-8.803 0-16.237 4.165-18.974 10.005h37.947z"/>
    <path fill="#fff" d="M115.909 35.707c3.403 1.562 7.619 2.529 12.242 2.529 4.217 0 8.1-.781 11.318-2.12-3.366-1.897-7.582-3.05-12.131-3.05-4.254 0-8.211 1.004-11.429 2.64z"/>
    <path fill="#2E2C2F" d="M117.977 24.995s-3.661-7.03 1.665-10.75c5.325-3.719 10.577-2.789 12.833-.93 2.22 1.86 3.736 4.092 3.662 9.41-.074 5.32-14.72 12.684-18.16 2.27z"/>
    <path fill="#fff" d="M130.847 31.02h-3.846c-3.773 0-6.806-3.05-6.806-6.843v-8.183h10.652V31.02z"/>
    <path fill="#fff" d="M130.847 25.627h-7.101v10.005h7.101V25.627z"/>
    <path fill="#2E2C2F" d="M119.678 16.663s.555 3.608 9.653 7.365c0 0 .222 2.938 3.366 4.463l-.814-13.613-11.687.595-.518 1.19z"/>
    <path fill="#588095" d="M146.275 43.07h-37.91v11.345h37.91V43.071z"/>
    <path fill="#C4C8D4" d="M176.01 59.734c15.341 0 27.776-12.506 27.776-27.933S191.351 3.87 176.01 3.87c-15.34 0-27.776 12.505-27.776 27.932 0 15.427 12.436 27.933 27.776 27.933z"/>
    <path fill="#7B997C" d="M176.01 29.979c6.006 0 10.874-4.896 10.874-10.935 0-6.04-4.868-10.935-10.874-10.935-6.005 0-10.873 4.895-10.873 10.935 0 6.039 4.868 10.935 10.873 10.935z"/>
    <path fill="#7B997C" d="M183.185 10.787H168.872s-12.834 13.65-3.07 20.308c3.625 2.492 7.175 3.347 10.245 3.161 3.033.149 6.62-.706 10.245-3.161 9.727-6.695-3.107-20.308-3.107-20.308z"/>
    <path fill="#F8F5F6" d="M176.16 32.806c3.181 0 5.844-2.455 6.14-5.654l.924-10.563h-14.091l.924 10.563c.222 3.199 2.922 5.654 6.103 5.654z"/>
    <path fill="#F8F5F6" d="M179.966 28.528h-7.804v10.451h7.804V28.528z"/>
    <path fill="#7B997C" d="M168.134 24.697s5.141-.855 10.023-6.062c0 0 2.256 3.273 7.286 3.273l-.74-6.881h-16.569v9.67z"/>
    <path fill="#2E2C2F" d="M155.854 44.373c5.103 8.555 12.242 13.91 20.156 13.91 8.1 0 15.349-5.579 20.49-14.505-3.365-3.794-7.693-6.807-13.203-8.22-1.739-.223-11.873-.26-13.611 0-5.807 1.488-10.356 4.76-13.832 8.815z"/>
    <path fill="#F8F5F6" d="M166.096 36.71c2.404 1.749 6.028 2.865 10.06 2.865 4.142 0 7.841-1.153 10.245-3.013-1.517-.707-3.255-1.227-5.178-1.6-3.292-.743-6.769-.52-9.653 0-2.035.41-3.847 1.005-5.474 1.749z"/>
    <path fill="#F8F5F6" d="M203.011 95.514c17.118 0 30.994-13.954 30.994-31.168s-13.876-31.169-30.994-31.169c-17.117 0-30.993 13.955-30.993 31.169s13.876 31.168 30.993 31.168z"/>
    <path fill="#7B997C" fill-rule="evenodd" d="M202.202 48.315l-3.735-2.38s-1.923-5.505 2.848-8.035c4.808-2.529 9.912 1.34 9.912 1.34s5.03 3.533 3.883 10.19c0 0 3.847 1.898 1.406 5.877 0 0 10.799 8.592 5.4 20.643-5.4 12.05-18.752 11.902-19.603 11.902-.85 0-10.208-14.84-10.208-14.84l2.035-8.22 6.99-7.7 1.072-8.777z" clip-rule="evenodd"/>
    <path fill="#C4C7D3" fill-rule="evenodd" d="M214.817 67.768l-2.515 6.806 4.919 4.352c.666.558.925 1.45.703 2.306l-2.996 11.753s-3.587 2.678-4.364 4.091c0 0-1.59 2.083-.703 4.873l.703 2.232 4.771-3.98.333 1.413s1.923-.558 3.07-2.901c.739-1.488 4.697-9.708 7.471-15.473 1.664-3.496 1.109-7.662-1.443-10.6l-5.659-6.472-4.29 1.6z" clip-rule="evenodd"/>
    <path fill="#7B997C" fill-rule="evenodd" d="M201.017 55.865l-1.517-.037s-7.249 2.269-6.213 8.852c1.035 6.584 13.241.558 13.167.15-.074-.41-5.437-8.965-5.437-8.965z" clip-rule="evenodd"/>
    <path fill="#C4C8D4" fill-rule="evenodd" d="M194.069 76.099l-4.291 2.938-.739 16.812s.369 3.198-1.517 5.579c-.185.26-.629.111-.629-.186l-.147-1.34s-.148 1.451-2.072 3.571c0 0-1.59 2.009-2.885 2.604-.332.149-.702-.186-.554-.521.518-1.487 1.701-5.281 1.812-10.526l-1.368-17.183c-.148-2.753.887-5.43 2.847-7.328l3.81-4.872c1.035-1.004 2.811-.595 3.255.818l2.478 9.634z" clip-rule="evenodd"/>
    <path fill="#99C1E3" fill-rule="evenodd" d="M216.706 107.64h-35.728s1.665-14.99 6.14-25.888c0 0-4.216-3.05-.481-8.294l.999-1.19-25.927-2.975s36.578-11.68 38.539-11.122c2.182.596 10.245-1.45 17.79 6.658l9.135 6.993s-14.276-1.34-18.419 10.749c-.037 0 6.288 11.642 7.952 25.069z" clip-rule="evenodd"/>
    <path fill="#C4C8D4" fill-rule="evenodd" d="M201.465 39.946s-3.736 5.988-4.291 10.563c-.554 4.575 2.33 5.319 2.33 5.319l-.037 3.794 8.137 1.301 3.662-17.22-9.801-3.757z" clip-rule="evenodd"/>
    <path fill="#C4C8D4" fill-rule="evenodd" d="M205.571 58.58l-6.065 1.041s-2.293 2.158-2.959 7.03c0 0 5.77.781 12.205-6.36l-3.181-1.71z" clip-rule="evenodd"/>
    <path fill="#7B997C" fill-rule="evenodd" d="M200.539 39.24s.296 3.607 4.216 6.1c0 0 .037 1.859 1.295 3.57 0 0 1.294-1.823 2.441-.41 1.146 1.377-.481 3.162-2.33 4.501 0 0-2.404 5.988 1.479 10.229 3.884 4.24 12.242 2.529 12.242 2.529l-7.286-15.77-1.368-8.072-10.689-2.678z" clip-rule="evenodd"/>
    <path fill="#C4C7D3" fill-rule="evenodd" d="M215.559 90.381l-.666 2.604s-3.588 2.678-4.364 4.091c0 0-1.591 2.083-.703 4.872l.185.596c.259.855 1.257 1.264 2.071.892l3.551-1.785s1.923-.558 3.069-2.901c.481-.93 2.146-4.426 4.032-8.332h-7.175v-.037z" clip-rule="evenodd"/>
    <path fill="#2D2C2F" fill-rule="evenodd" d="M199.465 57.39v-1.562s1.257.52 3.365-.78l-3.365 2.342z" clip-rule="evenodd"/>
    <path fill="#DFDFDF" d="M10.392 80.658h67.017V36.881H10.392v43.777z"/>
    <path fill="#BECBB2" d="M17.121 80.711c3.44-7.327 12.797-12.572 23.856-12.572 11.058 0 20.415 5.245 23.855 12.572h-47.71z"/>
    <path fill="#fff" d="M55.33 71.45c-4.254 1.971-9.58 3.161-15.387 3.161-5.288 0-10.17-.967-14.239-2.64 4.253-2.38 9.542-3.831 15.275-3.831 5.326 0 10.245 1.227 14.35 3.31z"/>
    <path fill="#2E2C2F" d="M50.553 55.755s3.809-7.327-1.739-11.158c-5.548-3.831-11.021-2.864-13.315-.968-2.33 1.935-3.883 4.24-3.809 9.783.037 5.541 15.275 13.203 18.863 2.343z"/>
    <path fill="#2E2C2F" d="M44.818 47.163l-12.649 1.6s-5.621 8.07-3.365 13.092c2.256 5.021 6.176 5.988 12.168 5.988 5.991 0 11.613-2.008 10.467-9.075-1.11-6.546-6.62-11.605-6.62-11.605z"/>
    <path fill="#fff" d="M36.494 65.537h6.62c3.773 0 6.806-3.05 6.806-6.844v-12.05H36.494v18.894z"/>
    <path fill="#fff" d="M36.51 71.352h8.914V58.743H36.51v12.61z"/>
    <path fill="#2E2C2F" d="M50.55 47.498s-.665 4.538-12.13 9.261c0 0-.26 3.72-4.217 5.58l1.036-17.11 14.72.744.592 1.525z"/>
    <path fill="#BDCAB1" d="M178.932 41.843h-58.584v35.335h58.584V41.843z"/>
    <path fill="#7B997C" d="M170.792 77.178H128.74c3.514-4.427 9.616-8.518 20.194-8.518 11.059 0 17.79 4.091 21.858 8.518z"/>
    <path fill="#fff" d="M143.348 61.296c1.879 0 3.403-2.148 3.403-4.798s-1.524-4.798-3.403-4.798-3.403 2.148-3.403 4.798 1.524 4.798 3.403 4.798zM143.159 48.011h10.023v-2.9h-10.023v2.9z"/>
    <path fill="#2E2C2F" d="M144.086 56.61s-3.958.594-3.958-3.794l-.111-1.525-1.294-3.46c-.777-2.12 1.036-4.277 3.255-3.793l11.687 2.417 1.553 8.109-11.132 2.045z"/>
    <path fill="#588095" d="M155.853 69.255l-9.358 7.141-3.143-7.29c1.738-.26 3.587-.446 5.621-.446 2.515 0 4.808.223 6.88.595z"/>
    <path fill="#588095" d="M145.095 69.684h9.21V50.641h-9.21v19.043z"/>
    <path fill="#588095" d="M141.016 50.36l.813 11.122c.148 2.157 1.961 3.83 4.106 3.83h2.515c2.108 0 3.883-1.599 4.068-3.719l1.11-11.232h-12.612z"/>
    <path fill="#2E2C2F" d="M148.933 59.51c.961 0 1.738-.78 1.738-1.748v-7.401h2.996l-1.11 11.232c-.222 2.12-1.96 3.72-4.068 3.72h-2.515c-2.145 0-3.921-1.674-4.105-3.831l-.185-1.971h7.249z" opacity=".5"/>
    <path fill="#2E2C2F" d="M153.669 56.61s-3.957.594-3.957-3.794h-8.987v-5.43h14.313l.185 7.215-1.554 2.008z"/>
    <path fill="#fff" d="M154.408 61.296c1.88 0 3.403-2.148 3.403-4.798s-1.523-4.798-3.403-4.798c-1.879 0-3.402 2.148-3.402 4.798s1.523 4.798 3.402 4.798z"/>
    <path fill="#fff" d="M153.189 53.373h2.441v-5.802c0-1.376-1.109-2.455-2.441-2.455v8.257z"/>
    <path fill="#fff" d="M153.186 48.352c0-1.116-.74-2.045-1.739-2.343v-.26h2.145v3.05h-.406v-.447z"/>
    <path fill="#F1EDEE" d="M95.684 90.307c15.974 0 28.923-13.022 28.923-29.086 0-16.063-12.949-29.085-28.923-29.085-15.973 0-28.922 13.022-28.922 29.085 0 16.064 12.949 29.086 28.922 29.086z"/>
    <path fill="#588095" fill-rule="evenodd" d="M95.093 77.438s16.385-.074 15.941-13.092c0 0 .148-4.017-2.959-8.146 0 0 2.848-3.868.111-7.178-2.737-3.31-15.83-.967-15.83-.967l-5.991 1.934s-21.822 12.72-4.92 26.185c-.073.037 8.322 7.885 13.648 1.264z" clip-rule="evenodd"/>
    <path fill="#99C1E3" fill-rule="evenodd" d="M92.207 55.978l.037 12.31 8.581.708.295-3.906s5.548-.335 3.81-14.877l-9.801-1.525-2.922 7.29z" clip-rule="evenodd"/>
    <path fill="#99C1E3" fill-rule="evenodd" d="M125.678 91.907s-5.88-22.094-24.336-25.59c0 0-9.172-2.083-20.23 4.054 0 0-8.433 4.575-12.724 12.684-1.035 1.934-.998 4.314.222 6.174 1.369 2.083 14.868 6.546 14.868 6.546s48.34 20.122 34.729 2.566c0 0 11.799 3.534 7.471-6.434z" clip-rule="evenodd"/>
    <path fill="#588095" fill-rule="evenodd" d="M90.325 44.559c2.367-4.277 7.73-7.922 13.869-5.988 6.103 1.934 8.766 9.782 3.773 12.46-3.921 2.12-9.543.818-11.762.148.037 5.58-3.957 7.55-3.957 7.55l-4.956 1.823s1.183-2.12-.85-6.732c-2.035-4.612 3.883-9.261 3.883-9.261z" clip-rule="evenodd"/>
    <path fill="#00B9FF" fill-rule="evenodd" d="M83.478 95.775l-.296-7.364c.037 0 5.732-3.162 3.883-11.642-.888-4.017-1.923-6.546-2.774-8.071.333-.149.629-.298.925-.447 2.663 2.418 9.875 8.034 18.381 7.067 8.137-.93 4.957-5.356 2.922-7.439 1.073.447 2.108 1.005 3.107 1.563 2.478 3.012 5.77 9.075 5.03 19.452l3.551 9.447c13.61 17.593-34.73-2.566-34.73-2.566z" clip-rule="evenodd"/>
    <path fill="#2E2C2F" fill-rule="evenodd" d="M97.129 64.495l3.883 2.008.111-1.45s-1.257.372-3.994-.558z" clip-rule="evenodd"/>
    <path fill="#fff" d="M174.79 77.029H94.2v36.933h80.59V77.029z"/>
    <path fill="#2E2C2F" d="M132.002 102.21c6.271 0 11.354-5.113 11.354-11.419s-5.083-11.418-11.354-11.418c-6.271 0-11.355 5.112-11.355 11.418 0 6.306 5.084 11.419 11.355 11.419z"/>
    <path fill="#99C1E3" fill-rule="evenodd" d="M149.423 113.962c-.148-.186-.296-.372-.444-.52-2.589-2.939-7.988-6.844-17.974-6.584-9.986-.223-15.386 3.645-17.975 6.584-.148.186-.296.334-.444.52h36.837z" clip-rule="evenodd"/>
    <path fill="#588095" fill-rule="evenodd" d="M141.173 108.309c-2.663-.967-6.028-1.562-10.134-1.451-4.216-.111-7.618.558-10.355 1.525v.261c.111 2.045 4.845 3.422 10.577 3.087 4.882-.298 8.914-1.748 9.912-3.422z" clip-rule="evenodd"/>
    <path fill="#588095" fill-rule="evenodd" d="M134.849 109.537h-7.841c-.333 0-.629-.298-.629-.633V96.779h9.098v12.125c0 .335-.259.633-.628.633z" clip-rule="evenodd"/>
    <path fill="#2E2C2F" fill-rule="evenodd" d="M133.48 103.177s-1.96 2.975-7.101 1.822v-1.822h7.101z" clip-rule="evenodd"/>
    <path fill="#588095" d="M130.043 104.85l-.629-.074c-2.478-.26-4.327-2.38-4.29-4.872l.221-10.861 12.095 1.339-2.182 10.637c-.481 2.455-2.737 4.092-5.215 3.831z"/>
    <path fill="#2D2C2F" d="M138.326 87.592L125.64 86.18l-1.294 8.591.85-.26c.555-.149.962-.632 1.036-1.227l.37-3.496s1.886-.186 4.364.074c2.478.297 4.29.893 4.29.893l-.37 3.496c-.073.595.222 1.153.74 1.413l.777.41 1.923-8.48z"/>
    <path fill="#588095" d="M135.626 95.7l.776.41c.592.297.851.967.629 1.562l-.629 1.6c-.184.483-.554.892-.998 1.115l-.703.335.925-5.022z"/>
    <path fill="#2D2C2F" d="M135.847 94.399l-.333 2.417c-.074.447.111.893.481 1.153l.777-3.496-.925-.074z"/>
    <path fill="#DFDFDF" d="M235.447 71.376h-65.168v42.587h65.168V71.376z"/>
    <path fill="#2D2C2F" d="M221.985 86.96c-.443-5.207-2.626-11.94-10.91-11.381-13.352.893-8.766 14.06-8.766 14.06-6.916 7.624 1.886 19.452 1.886 19.452s24.485 6.248 25.668-2.158c2.256-15.658-7.878-19.973-7.878-19.973z"/>
    <path fill="#7B997C" fill-rule="evenodd" d="M235.448 113.963v-8.889c-4.549-4.389-11.539-7.29-22.265-5.245-11.539 2.195-18.419 8.592-22.302 14.134h44.567z" clip-rule="evenodd"/>
    <path fill="#C4C7D3" fill-rule="evenodd" d="M214.255 104.255c4.253-1.525 7.656-3.459 8.765-4.872-2.885-.335-6.139-.224-9.875.483-1.442.261-1.997.372-3.291.781-4.143 1.674-6.732 3.72-6.362 4.761.444 1.302 5.289.781 10.763-1.153z" clip-rule="evenodd"/>
    <path fill="#C4C7D3" d="M210.446 104.256l7.212-2.939-2.293-13.761h-7.693l2.774 16.7z"/>
    <path fill="#2E2C2F" d="M209.148 96.445l5.03-.818-4.327 4.984-.703-4.166z"/>
    <path fill="#C4C7D3" d="M205.269 87.369s-.481 10.303 4.586 10.303c5.104 0 8.211-7.402 8.211-7.402l-.703-6.509-11.317.484-.777 3.124z"/>
    <path fill="#2D2C2F" d="M216.438 93.915l-.444-3.087c-1.517-1.116-1.443-4.352-1.443-4.352-1.479-.297-2.515-2.008-2.515-2.008-2.441 2.827-6.805 3.682-6.805 3.682h-.407v-5.728l14.24-.186-.814 10.638-1.812 1.041z"/>
    <path fill="#99C1E3" d="M172.868 64.383c-14.017 0-25.372 11.419-25.372 25.515 0 11.158 7.101 20.606 17.013 24.102h16.681c9.912-3.459 17.013-12.944 17.013-24.102.037-14.096-11.318-25.515-25.335-25.515z"/>
    <path fill="#588095" d="M172.869 97.3c5.474 0 9.912-4.463 9.912-9.969 0-5.505-4.438-9.968-9.912-9.968-5.474 0-9.912 4.463-9.912 9.968 0 5.506 4.438 9.968 9.912 9.968z"/>
    <path fill="#578094" d="M179.416 91.349H166.286s-11.724 12.46-2.811 18.559c3.329 2.269 6.584 3.05 9.358 2.902 2.773.148 6.028-.633 9.357-2.902 8.95-6.099-2.774-18.56-2.774-18.56z"/>
    <path fill="#fff" d="M176.457 95.96h-7.102v9.559h7.102V95.96z"/>
    <path fill="#2D2C2F" d="M173.091 97.3l-.074 2.566-3.662.892v-3.31l3.736-.149z"/>
    <path fill="#00B9FF" d="M179.415 102.841c-1.553-.111-10.689-.148-12.242 0-5.252.819-9.32 2.604-12.464 4.873 2.7 2.789 6.066 4.947 9.801 6.248h16.68c3.884-1.376 7.36-3.645 10.134-6.583-3.032-2.083-6.916-3.757-11.909-4.538z"/>
    <path fill="#fff" d="M160.219 104.701c3.07 1.897 7.656 3.124 12.76 3.124 5.252 0 9.949-1.264 12.981-3.273-1.96-.744-4.105-1.339-6.546-1.711-1.516-.297-10.689-.297-12.242 0-2.589.41-4.882 1.042-6.953 1.86zM173.016 99.866c2.921 0 5.362-2.231 5.621-5.17l.851-9.633h-12.871l.851 9.633c.185 2.939 2.626 5.17 5.548 5.17z"/>
    <path fill="#588095" d="M165.693 92.464s4.697-.781 9.173-5.542c0 0 2.034 3.013 6.657 3.013l-.666-6.286H165.73v8.815h-.037zM71.897 77.029H5.435v36.934h66.462V77.029z"/>
    <path fill="#7A997B" fill-rule="evenodd" d="M10.058 113.963h34.323c-.37-4.649-3.44-8.741-7.952-10.34-3.218-1.153-7.212-2.157-11.133-2.194-8.876-.075-16.495 6.025-16.495 6.025s1.183 1.413 1.183 3.794c.037.818.037 1.748.074 2.715z" clip-rule="evenodd"/>
    <path fill="#99C1E3" fill-rule="evenodd" d="M32.03 109.872c6.066 0 3.81-4.761 1.96-7.03-2.662-.781-5.695-1.376-8.654-1.413-2.071 0-4.031.297-5.807.818 1.517 1.86 6.695 7.625 12.501 7.625z" clip-rule="evenodd"/>
    <path fill="#99C1E3" fill-rule="evenodd" d="M27.291 104.032l-7.692-1.785.184-3.645s-1.59-4.315-.961-10.08c.148-1.339.85-2.53 1.96-3.31 2.811-1.972 8.692-5.58 13.685-5.021 0 0 .998 2.64-.962 5.095 0 0 1.073 3.868-.85 7.03 0 0 2.108-.186-.814 4.76l-.222.67c-.37 1.079-.629 2.195-.814 3.31l-.407 1.86-3.107 1.116z" clip-rule="evenodd"/>
    <path fill="#2E2C2F" fill-rule="evenodd" d="M33.503 85.25c1.96-2.456.962-5.096.962-5.096-5.4-.595-11.872 3.682-14.313 5.467-.666.484-1.11 1.228-1.22 2.083-.888 6.137.85 10.86.85 10.86l-.148 2.753s.814-1.227 1.738-3.384c-.37-.41-.887-1.19-1.48-2.753C18.599 91.684 23 93.172 23 93.172c.221-.856.443-1.748.628-2.678 0 0 5.511-.744 8.84-4.017 0 0 .185 2.826.037 5.84-.074 1.673-.296 3.384-.666 4.686 2.922-4.947.814-4.761.814-4.761 1.96-3.162.85-6.993.85-6.993z" clip-rule="evenodd"/>
    <path fill="#99C1E3" fill-rule="evenodd" d="M5.436 113.963h7.582c-.148-2.083-1.147-4.463-4.18-6.472 0 0-1.553 1.004-3.402 2.529v3.943z" clip-rule="evenodd"/>
    <path fill="#C9D3BE" d="M106.334 113.963c.296-1.823.444-3.645.444-5.542 0-19.044-15.35-34.48-34.286-34.48s-34.285 15.436-34.285 34.48c0 1.897.148 3.719.444 5.542h67.683z"/>
    <path fill="#7B997C" d="M70.792 94.994c5.23 0 9.469-4.263 9.469-9.522 0-5.258-4.24-9.521-9.469-9.521-5.229 0-9.468 4.263-9.468 9.521 0 5.259 4.24 9.522 9.468 9.522z"/>
    <path fill="#7B997C" d="M62.398 91.646c6.68 0 12.094-5.445 12.094-12.162 0-6.717-5.415-12.162-12.094-12.162-6.68 0-12.094 5.445-12.094 12.162 0 6.717 5.414 12.162 12.094 12.162z"/>
    <path fill="#2E2C2F" d="M67.982 90.159c4.188 0 7.582-3.414 7.582-7.625s-3.394-7.625-7.582-7.625c-4.187 0-7.582 3.414-7.582 7.625 0 4.21 3.395 7.625 7.582 7.625z"/>
    <path fill="#7B997C" d="M70.125 93.395c4.943 0 8.95-4.03 8.95-9.001 0-4.971-4.007-9.001-8.95-9.001s-8.95 4.03-8.95 9c0 4.972 4.007 9.002 8.95 9.002z"/>
    <path fill="#F1EDEE" d="M74.785 92.108l-7.933-1.64-2.384 11.657 7.934 1.641 2.383-11.658z"/>
    <path fill="#2E2C2F" d="M73.935 96.147l-4.882-.781s1.072 1.822 4.364 3.273l.518-2.492z"/>
    <path fill="#F1EDEE" d="M78.708 83.873s.74 7.03-1.22 10.526c-1.96 3.533-4.809 3.384-7.25 1.822-2.478-1.525-3.957-4.463-4.031-6.434-.074-1.972 2.182-7.29 2.182-7.29l10.319 1.376z"/>
    <path fill="#7B997C" d="M67.72 77.996l-3.477 8.964.777 4.426c3.07-1.078 5.289-4.054 5.289-7.513 0-2.306-.999-4.426-2.59-5.877z"/>
    <path fill="#7B997C" d="M79.7 84.208s-3.18 1.264-10.688-.447l-.555-2.9 10.615 1.673.629 1.674z"/>
    <path fill="#F1EDEE" d="M66.725 91.944l.961-5.021c-.259-.186-.555-.298-.85-.298-1.036 0-1.776 1.228-1.628 2.715.074 1.228.703 2.27 1.517 2.604zM88.803 113.963c-.147-.335-.258-.483-.258-.483S77.449 91.684 59.4 101.392c-6.583 3.533-10.134 8.182-11.983 12.571h41.386z"/>
    <path fill="#578094" d="M58.77 113.963h26.15c-1.221-3.72-2.775-7.551-4.66-10.601-1.221-.967-2.553-1.859-3.995-2.603 1.11 1.748 1.96 3.794 1.257 5.207-1.516 2.938-6.805 2.566-9.43 1.042-2.627-1.563-3.736-3.236-5.216-4.315-.776-.558-1.48-1.19-2.626-1.711-.259.112-.517.26-.776.409-2.035 1.079-3.773 2.269-5.252 3.534 1.48.967 3.81 3.31 4.549 9.038z"/>
    <path fill="#588095" d="M14.94 42.03c.858 0 1.554-.7 1.554-1.563s-.696-1.562-1.554-1.562c-.858 0-1.553.7-1.553 1.562 0 .863.695 1.562 1.553 1.562z"/>
    <path fill="#99C1E3" d="M33.915 10.377c.858 0 1.553-.699 1.553-1.562 0-.862-.695-1.562-1.553-1.562s-1.554.7-1.554 1.562c0 .863.696 1.563 1.554 1.563z"/>
    <path fill="#fff" d="M98.602 13.204c.858 0 1.554-.7 1.554-1.563 0-.862-.696-1.562-1.554-1.562-.858 0-1.553.7-1.553 1.563 0 .862.695 1.562 1.553 1.562z"/>
    <path fill="#7B997C" d="M174.274 47.832c.858 0 1.553-.7 1.553-1.562 0-.863-.695-1.563-1.553-1.563s-1.553.7-1.553 1.563c0 .862.695 1.562 1.553 1.562z"/>
    <path fill="#99C1E3" d="M230.196 78.554c.858 0 1.553-.7 1.553-1.562 0-.863-.695-1.563-1.553-1.563s-1.553.7-1.553 1.563c0 .862.695 1.562 1.553 1.562z"/>
    <path fill="#C9D3BE" d="M101.193 83.203c.858 0 1.553-.7 1.553-1.562 0-.863-.695-1.563-1.553-1.563s-1.553.7-1.553 1.563c0 .862.695 1.562 1.553 1.562z"/>
    <path fill="#99C1E3" d="M10.284 83.203c.858 0 1.553-.7 1.553-1.562 0-.863-.695-1.563-1.553-1.563s-1.554.7-1.554 1.563c0 .862.696 1.562 1.554 1.562z"/>
</svg>
