<svg xmlns="http://www.w3.org/2000/svg" width="240" height="114" fill="none" viewBox="0 0 240 114">
    <path fill="#7B997C" d="M125.173 113.879h-.66V24.61H35.245v89.269h-.66V23.953h90.588v89.926z"/>
    <path fill="#DFDFDF" d="M197.047 46.994h-48.362v48.184h48.362V46.994z"/>
    <path fill="#00B9FF" fill-rule="evenodd" d="M185.005 64.283l-3.497-3.484-13.196 13.18-3.926-3.944-3.496 3.484 7.422 7.395v-.033.033l16.693-16.63z" clip-rule="evenodd"/>
    <path fill="#2E2C2F" d="M130.853 77.364c15.067 0 27.282-12.17 27.282-27.182C158.135 35.17 145.92 23 130.853 23c-15.068 0-27.282 12.17-27.282 27.182 0 15.012 12.214 27.181 27.282 27.181z"/>
    <path fill="#BECBB2" d="M99.653 58.202l-6.461-6.438-30.465 30.353 6.462 6.438 30.464-30.353z"/>
    <path fill="#BECBB2" d="M93.209 88.56l6.461-6.437L69.206 51.77l-6.462 6.438L93.21 88.56z"/>
    <path fill="#F1EDEE" d="M201.807 102.803c8.071 0 14.614-6.519 14.614-14.56 0-8.042-6.543-14.56-14.614-14.56-8.072 0-14.615 6.518-14.615 14.56 0 8.041 6.543 14.56 14.615 14.56z"/>
    <path fill="#7B997C" fill-rule="evenodd" d="M174.029 109.64c-1.319-3.944-3.628-7.527-6.729-10.288-6.532-5.752-20.157-13.41-45.393-12.95-25.237-.46-38.861 7.198-45.393 12.95-3.134 2.761-5.444 6.311-6.73 10.288l-1.386 4.24h107.083l-1.452-4.24z" clip-rule="evenodd"/>
    <g fill="#BECBB2" opacity=".2">
        <path d="M149.98 113.88h.726c7.192-3.747 15.835-7.133 21.113-9.039-.066-.099-.132-.197-.165-.296-3.628 1.315-8.808 3.32-13.987 5.62-2.87 1.282-5.443 2.531-7.687 3.715zM142.856 113.879c8.577-5.62 17.055-8.775 26.919-11.931-.066-.098-.165-.197-.231-.263-9.996 3.221-18.573 6.443-27.282 12.194h.594zM100.696 107.766c-10.887-3.155-20.585-3.648-28.866-2.728-.066.131-.132.23-.198.361 8.28-.953 18.045-.493 28.965 2.696 5.674 1.643 9.402 3.615 11.117 5.817h.396c-1.683-2.366-5.509-4.437-11.414-6.146zM121.05 112.335c-.099.526-.165 1.052-.264 1.545h.33c.099-.493.164-.986.263-1.512 1.518-9.203 3.068-18.57 8.611-25.834-.132 0-.264 0-.363-.033-.033.033-.033.066-.066.099-5.476 7.33-6.994 16.696-8.511 25.735zM129.331 101.324c-.33 2.3.264 3.977 1.748 4.963 1.089.723 2.639 1.084 4.652 1.084 5.971 0 15.966-3.122 29.954-9.301-.099-.099-.198-.165-.33-.263-15.241 6.738-29.327 11.372-34.111 8.184-1.352-.92-1.913-2.465-1.616-4.634.791-5.687 5.245-10.124 11.216-13.575-.165-.033-.363-.066-.528-.099-6.565 3.879-10.292 8.48-10.985 13.641zM115.314 98.168c-1.254 1.973-3.2 3.254-5.807 3.78-6.894 1.446-17.484-2.268-27.117-6.836-.099.066-.23.131-.33.197 8.28 3.944 17.32 7.297 24.149 7.297 1.187 0 2.309-.099 3.364-.329 2.706-.559 4.718-1.906 6.004-3.944 2.013-3.156 3.134-6.968 4.322-11.011.099-.296.198-.624.264-.92h-.33c-.099.296-.165.558-.264.854-1.155 4.01-2.276 7.79-4.255 10.912z" opacity=".2"/>
        <path d="M110.432 92.91c1.913-1.184 3.167-3.353 3.794-6.377-.099 0-.231 0-.33.033-.726 3.451-2.244 5.226-3.629 6.08-1.188.757-2.639 1.118-4.322 1.118-3.101 0-7.06-1.282-11.843-3.845-.132.032-.297.098-.429.131 4.949 2.695 9.072 4.01 12.305 4.01 1.716.033 3.233-.362 4.454-1.15z" opacity=".2"/>
    </g>
    <path fill="#588095" fill-rule="evenodd" d="M123.618 98.464c10.655 0 19.793-3.747 23.95-9.137-6.796-1.874-15.571-2.761-26.028-2.564-8.973-.164-16.165.362-22.4 1.808 3.86 5.785 13.361 9.893 24.478 9.893z" clip-rule="evenodd"/>
    <path fill="#2E2C2F" fill-rule="evenodd" d="M142.888 94.093c3.661.263 8.544-1.184 11.777-2.367-7.687-3.188-18.309-5.555-32.759-5.292-5.014-.098-9.566.132-13.69.625l-6.136 26.853h22.466l4.717-5.325c11.15-4.864 13.625-14.494 13.625-14.494z" clip-rule="evenodd"/>
    <path fill="#2D2C2F" d="M137.076 69.081h-25.104v25.013h25.104V69.08z"/>
    <path fill="#588095" d="M120.588 82.393l-1.485-.428c-5.74-1.643-9.269-7.33-8.181-13.18l4.817-25.406 28.172 8.02-9.369 24.124c-2.177 5.522-8.214 8.513-13.954 6.87z"/>
    <path fill="#2D2C2F" d="M147.108 45.187l-29.492-8.382-6.466 19.688 2.079-.23c1.385-.164 2.54-1.118 2.903-2.465l2.309-8.086s4.552.362 10.359 1.972c5.773 1.677 9.83 3.78 9.83 3.78l-2.309 8.086c-.396 1.347.066 2.76 1.188 3.615l1.649 1.282 7.95-19.26z"/>
    <path fill="#2D2C2F" d="M115.839 57.347l6.07 1.117c-.033 0-.33-3.089-6.07-1.117zM134.743 58.892l-4.652-4.043s2.639-1.676 4.652 4.043zM120.173 60.029c.21-.733.04-1.425-.381-1.544-.42-.12-.931.377-1.141 1.11-.211.733-.04 1.425.38 1.544.421.12.932-.377 1.142-1.11zM130.239 62.656c.21-.733.04-1.424-.381-1.544-.42-.12-.931.378-1.141 1.11-.211.734-.04 1.425.38 1.545.421.12.932-.378 1.142-1.111zM118.876 67.175s4.355 1.578 6.697 2.17c.033 0-4.289.755-6.697-2.17zM120.785 74.307l5.707-1.38s-1.287-1.775-5.707 1.38z"/>
    <path fill="#588095" d="M137.473 63.164l1.65 1.282c1.253.92 1.616 2.63.824 3.944l-2.111 3.517c-.627 1.052-1.649 1.84-2.837 2.17l-1.814.525 4.288-11.438z"/>
    <path fill="#2D2C2F" d="M138.506 60.207l-1.782 5.588c-.329 1.019-.066 2.103.66 2.892l3.2-7.888-2.078-.592z"/>
    <path fill="#2E2C2F" d="M113.883 84.331l-1.584-7.625 4.619 2.63 17.682-3.978-16.923 10.354-3.794-1.38z"/>
    <path fill="#588095" d="M92.975 113.879l17.22-24.42V83.41c0-.986-.264-1.94-.791-2.761l-3.794-6.18s3.761-1.15 6.697 2.203c2.903 3.352 5.377 5.817 5.377 5.817l19.397-8.217s2.475 4.47-2.606 6.837l-.396 5.916c-.132 1.775-.56 3.517-1.319 5.16-1.551 3.353-4.025 6.212-7.126 8.185l-5.608 3.615-4.684 9.86H92.975v.033z"/>
    <path fill="#2E2C2F" d="M127.088 84.89l7.357-3.746-.132 1.873-7.225 1.874z"/>
    <path fill="#578094" d="M40.847 103.494c9.857 0 17.847-7.961 17.847-17.782 0-9.82-7.99-17.781-17.847-17.781C30.99 67.93 23 75.89 23 85.712c0 9.82 7.99 17.782 17.847 17.782z"/>
    <path fill="#578094" d="M46.907 100.141l10.985 4.174-5.18-10.846-5.805 6.672z"/>
    <path fill="#7B997C" d="M176.331 49.721c6.486 0 11.744-5.238 11.744-11.7 0-6.463-5.258-11.702-11.744-11.702s-11.744 5.239-11.744 11.701c0 6.463 5.258 11.701 11.744 11.701z"/>
    <path fill="#7B997C" d="M176.688 46.468l-10.952 4.14 5.146-10.845 5.806 6.705z"/>
    <path fill="#F1EDEE" d="M201.799 102.804c8.071 0 14.614-6.519 14.614-14.56 0-8.042-6.543-14.561-14.614-14.561-8.071 0-14.614 6.519-14.614 14.56 0 8.042 6.543 14.561 14.614 14.561z"/>
    <path fill="#C4C7D3" d="M196.717 93.698c.824-1.972 2.771-3.352 5.047-3.352s4.223 1.38 5.047 3.352l1.683-.69c-1.089-2.63-3.695-4.503-6.73-4.503-3.035 0-5.641 1.84-6.73 4.503l1.683.69zM197.807 85.745c.82 0 1.485-.662 1.485-1.48 0-.816-.665-1.478-1.485-1.478-.82 0-1.484.662-1.484 1.479 0 .817.664 1.479 1.484 1.479zM205.791 85.745c.82 0 1.484-.662 1.484-1.48 0-.816-.664-1.478-1.484-1.478s-1.485.662-1.485 1.479c0 .817.665 1.479 1.485 1.479z"/>
    <path fill="#99C1E3" d="M61.439 49.393c6.395 0 11.58-5.165 11.58-11.537 0-6.371-5.185-11.537-11.58-11.537-6.395 0-11.58 5.166-11.58 11.537 0 6.372 5.185 11.537 11.58 11.537z"/>
    <path fill="#578094" d="M65.37 39.466c-.659 1.61-2.243 2.728-4.09 2.728s-3.43-1.117-4.09-2.728l-1.353.559c.89 2.136 3.002 3.615 5.443 3.615s4.553-1.511 5.443-3.615l-1.352-.559zM58.048 36.509c.656 0 1.188-.53 1.188-1.183 0-.654-.532-1.184-1.188-1.184-.656 0-1.187.53-1.187 1.184 0 .653.532 1.183 1.187 1.183zM64.513 36.509c.656 0 1.188-.53 1.188-1.183 0-.654-.532-1.184-1.188-1.184-.656 0-1.187.53-1.187 1.184 0 .653.531 1.183 1.187 1.183z"/>
    <path fill="#BECBB2" d="M172.019 39.465c.766 0 1.386-.618 1.386-1.38 0-.763-.62-1.38-1.386-1.38-.765 0-1.385.617-1.385 1.38 0 .762.62 1.38 1.385 1.38zM176.339 39.465c.765 0 1.386-.618 1.386-1.38 0-.763-.621-1.38-1.386-1.38-.765 0-1.385.617-1.385 1.38 0 .762.62 1.38 1.385 1.38zM180.623 39.465c.765 0 1.386-.618 1.386-1.38 0-.763-.621-1.38-1.386-1.38-.765 0-1.385.617-1.385 1.38 0 .762.62 1.38 1.385 1.38z"/>
    <path fill="#fff" d="M34.854 87.651c1.075 0 1.946-.868 1.946-1.939 0-1.071-.871-1.94-1.946-1.94s-1.947.869-1.947 1.94.872 1.94 1.947 1.94zM41.026 87.651c1.074 0 1.946-.868 1.946-1.939 0-1.071-.872-1.94-1.947-1.94-1.075 0-1.946.869-1.946 1.94s.871 1.94 1.947 1.94zM47.058 87.651c1.075 0 1.947-.868 1.947-1.939 0-1.071-.872-1.94-1.947-1.94-1.075 0-1.946.869-1.946 1.94s.871 1.94 1.946 1.94z"/>
</svg>
