<svg xmlns="http://www.w3.org/2000/svg" width="30" height="27" fill="none" viewBox="0 0 30 27">
    <path fill="#7B997C" d="M12.052 5.253c.75-.315 1.065-1.21.726-1.937L11.592.824C11.254.122 10.431-.193 9.705.122 7.648.993 5.88 2.131 4.477 3.51 2.76 5.132 1.597 6.995.968 9.052.338 11.134 0 13.965 0 17.571v7.43c0 .798.653 1.452 1.452 1.452h9.511c.799 0 1.452-.654 1.452-1.452V15.49c0-.8-.653-1.452-1.452-1.452h-4.55c.049-2.445.63-4.405 1.694-5.882.872-1.185 2.179-2.153 3.945-2.903zM29.138 5.253c.75-.315 1.065-1.21.726-1.936L28.678.848C28.34.146 27.517-.168 26.791.146c-2.033.872-3.776 2.01-5.203 3.364-1.719 1.646-2.905 3.51-3.534 5.567-.63 2.032-.944 4.864-.944 8.494v7.43c0 .799.654 1.452 1.452 1.452h9.511c.8 0 1.453-.653 1.453-1.452V15.49c0-.799-.654-1.452-1.453-1.452H23.5c.048-2.445.629-4.405 1.694-5.881.87-1.186 2.178-2.154 3.944-2.904z"/>
</svg>
